<svg width="1920" height="1068" viewBox="0 0 1920 1068" fill="none" xmlns="http://www.w3.org/2000/svg">
<path d="M0 0H1920V925C1920 925 1861.77 955.728 1824 974.5C1798.74 987.053 1784.99 995.044 1759 1006C1745.1 1011.86 1737.12 1014.7 1723 1020C1710.16 1024.82 1703 1027.65 1690 1032C1599.82 1062.2 1544.04 1070.57 1449 1067C1236 1059 966 1003.5 966 1003.5C966 1003.5 891.431 991.014 843.5 984C796.912 977.183 770.835 972.834 724 968C674.736 962.915 597.5 959 597.5 959C597.5 959 522.113 956.619 474 960C426.452 963.341 399.979 967.943 353 976C306.385 983.994 280.552 990.227 234.5 1001C187.971 1011.88 116 1031.5 116 1031.5C116 1031.5 82 1041 58 1048C34 1055 0 1066 0 1066V0Z" fill="url(#paint0_linear_988_5)"/>
<g clip-path="url(#clip0_988_5)">
<g filter="url(#filter0_f_988_5)">
<path d="M1008.03 757.76C942.461 787.924 885.824 806.642 915.889 856.087C945.954 905.532 1023.48 921.164 1089.04 891.001C1154.61 860.837 1174.5 774.779 1144.43 725.334C1114.37 675.888 1073.59 727.597 1008.03 757.76Z" fill="#F487BD" fill-opacity="0.5"/>
</g>
<mask id="mask0_988_5" style="mask-type:alpha" maskUnits="userSpaceOnUse" x="907" y="704" width="252" height="203">
<path d="M1008.03 757.76C942.461 787.924 885.824 806.642 915.889 856.087C945.954 905.532 1023.48 921.164 1089.04 891.001C1154.61 860.837 1174.5 774.779 1144.43 725.334C1114.37 675.888 1073.59 727.597 1008.03 757.76Z" fill="#5092F3"/>
</mask>
<g mask="url(#mask0_988_5)">
<g filter="url(#filter1_i_988_5)">
<path d="M1008.03 757.76C942.461 787.924 885.824 806.642 915.889 856.087C945.954 905.532 1023.48 921.164 1089.04 891.001C1154.61 860.837 1174.5 774.779 1144.43 725.334C1114.37 675.888 1073.59 727.597 1008.03 757.76Z" fill="#B65EBA"/>
</g>
<g filter="url(#filter2_f_988_5)">
<path d="M993.484 765.382C935.336 792.133 885.106 808.734 911.769 852.585C938.433 896.438 1007.19 910.301 1065.33 883.55C1123.48 856.799 1141.12 780.476 1114.46 736.624C1087.8 692.772 1051.63 738.631 993.484 765.382Z" fill="url(#paint1_linear_988_5)"/>
</g>
</g>
</g>
<g filter="url(#filter3_i_988_5)">
<path d="M393.843 413.531C415.077 336.656 369.575 258.591 292.211 239.168C214.847 219.745 134.917 266.319 113.682 343.194C92.4477 420.069 137.95 498.134 215.314 517.557C292.678 536.98 372.608 490.406 393.843 413.531Z" fill="#2E8DE1"/>
</g>
<g filter="url(#filter4_f_988_5)">
<path d="M375.016 359.719C359.54 283.902 284.54 236.097 207.497 252.942C130.455 269.788 80.5457 344.905 96.0215 420.722C111.497 496.539 186.498 544.345 263.54 527.499C340.583 510.654 390.492 435.536 375.016 359.719Z" fill="url(#paint2_linear_988_5)"/>
</g>
<g filter="url(#filter5_i_988_5)">
<path d="M1720.33 212.679C1758.68 241.433 1792.78 261.719 1766.82 287.788C1740.86 313.857 1688.73 311.68 1650.38 282.926C1612.03 254.172 1610.58 197.739 1636.54 171.67C1662.5 145.602 1681.99 183.925 1720.33 212.679Z" fill="#5092F3"/>
</g>
<g filter="url(#filter6_f_988_5)">
<path d="M1728.72 219.634C1762.72 245.136 1792.96 263.127 1769.94 286.247C1746.92 309.366 1700.69 307.436 1666.68 281.935C1632.67 256.434 1631.38 206.385 1654.4 183.265C1677.42 160.146 1694.71 194.134 1728.72 219.634Z" fill="url(#paint3_linear_988_5)"/>
</g>
<defs>
<filter id="filter0_f_988_5" x="807.608" y="604.831" width="450.515" height="401.528" filterUnits="userSpaceOnUse" color-interpolation-filters="sRGB">
<feFlood flood-opacity="0" result="BackgroundImageFix"/>
<feBlend mode="normal" in="SourceGraphic" in2="BackgroundImageFix" result="shape"/>
<feGaussianBlur stdDeviation="50" result="effect1_foregroundBlur_988_5"/>
</filter>
<filter id="filter1_i_988_5" x="907.608" y="704.831" width="254.515" height="201.528" filterUnits="userSpaceOnUse" color-interpolation-filters="sRGB">
<feFlood flood-opacity="0" result="BackgroundImageFix"/>
<feBlend mode="normal" in="SourceGraphic" in2="BackgroundImageFix" result="shape"/>
<feColorMatrix in="SourceAlpha" type="matrix" values="0 0 0 0 0 0 0 0 0 0 0 0 0 0 0 0 0 0 127 0" result="hardAlpha"/>
<feOffset dx="4"/>
<feGaussianBlur stdDeviation="10"/>
<feComposite in2="hardAlpha" operator="arithmetic" k2="-1" k3="1"/>
<feColorMatrix type="matrix" values="0 0 0 0 1 0 0 0 0 1 0 0 0 0 1 0 0 0 0.25 0"/>
<feBlend mode="normal" in2="shape" result="effect1_innerShadow_988_5"/>
</filter>
<filter id="filter2_f_988_5" x="864.425" y="678.441" width="302.175" height="258.73" filterUnits="userSpaceOnUse" color-interpolation-filters="sRGB">
<feFlood flood-opacity="0" result="BackgroundImageFix"/>
<feBlend mode="normal" in="SourceGraphic" in2="BackgroundImageFix" result="shape"/>
<feGaussianBlur stdDeviation="20" result="effect1_foregroundBlur_988_5"/>
</filter>
<filter id="filter3_i_988_5" x="104.465" y="230.76" width="294.595" height="291.205" filterUnits="userSpaceOnUse" color-interpolation-filters="sRGB">
<feFlood flood-opacity="0" result="BackgroundImageFix"/>
<feBlend mode="normal" in="SourceGraphic" in2="BackgroundImageFix" result="shape"/>
<feColorMatrix in="SourceAlpha" type="matrix" values="0 0 0 0 0 0 0 0 0 0 0 0 0 0 0 0 0 0 127 0" result="hardAlpha"/>
<feOffset dx="-4" dy="-4"/>
<feGaussianBlur stdDeviation="12.5"/>
<feComposite in2="hardAlpha" operator="arithmetic" k2="-1" k3="1"/>
<feColorMatrix type="matrix" values="0 0 0 0 1 0 0 0 0 1 0 0 0 0 1 0 0 0 0.25 0"/>
<feBlend mode="normal" in2="shape" result="effect1_innerShadow_988_5"/>
</filter>
<filter id="filter4_f_988_5" x="-24.7926" y="131.564" width="520.623" height="517.312" filterUnits="userSpaceOnUse" color-interpolation-filters="sRGB">
<feFlood flood-opacity="0" result="BackgroundImageFix"/>
<feBlend mode="normal" in="SourceGraphic" in2="BackgroundImageFix" result="shape"/>
<feGaussianBlur stdDeviation="59" result="effect1_foregroundBlur_988_5"/>
</filter>
<filter id="filter5_i_988_5" x="1619" y="163" width="160.904" height="143" filterUnits="userSpaceOnUse" color-interpolation-filters="sRGB">
<feFlood flood-opacity="0" result="BackgroundImageFix"/>
<feBlend mode="normal" in="SourceGraphic" in2="BackgroundImageFix" result="shape"/>
<feColorMatrix in="SourceAlpha" type="matrix" values="0 0 0 0 0 0 0 0 0 0 0 0 0 0 0 0 0 0 127 0" result="hardAlpha"/>
<feOffset dx="4"/>
<feGaussianBlur stdDeviation="10"/>
<feComposite in2="hardAlpha" operator="arithmetic" k2="-1" k3="1"/>
<feColorMatrix type="matrix" values="0 0 0 0 1 0 0 0 0 1 0 0 0 0 1 0 0 0 0.25 0"/>
<feBlend mode="normal" in2="shape" result="effect1_innerShadow_988_5"/>
</filter>
<filter id="filter6_f_988_5" x="1598.85" y="135.576" width="219.154" height="206.823" filterUnits="userSpaceOnUse" color-interpolation-filters="sRGB">
<feFlood flood-opacity="0" result="BackgroundImageFix"/>
<feBlend mode="normal" in="SourceGraphic" in2="BackgroundImageFix" result="shape"/>
<feGaussianBlur stdDeviation="20" result="effect1_foregroundBlur_988_5"/>
</filter>
<linearGradient id="paint0_linear_988_5" x1="-1.1249e-08" y1="-6.53858e-09" x2="1949.75" y2="1061.35" gradientUnits="userSpaceOnUse">
<stop stop-color="#9E00F6"/>
<stop offset="1" stop-color="#5092F3"/>
</linearGradient>
<linearGradient id="paint1_linear_988_5" x1="935.236" y1="854.123" x2="1112.86" y2="727.379" gradientUnits="userSpaceOnUse">
<stop stop-color="#FEADD5"/>
<stop offset="1" stop-color="#FEADD5" stop-opacity="0"/>
</linearGradient>
<linearGradient id="paint2_linear_988_5" x1="207.497" y1="252.942" x2="487.286" y2="195.831" gradientUnits="userSpaceOnUse">
<stop stop-color="#24E8DE"/>
<stop offset="1" stop-color="#24E8DE" stop-opacity="0.25"/>
</linearGradient>
<linearGradient id="paint3_linear_988_5" x1="1754.58" y1="283.607" x2="1660.53" y2="174.441" gradientUnits="userSpaceOnUse">
<stop stop-color="#24E8DE"/>
<stop offset="1" stop-color="#24C5E8" stop-opacity="0"/>
</linearGradient>
<clipPath id="clip0_988_5">
<rect width="404.079" height="370.33" fill="white" transform="translate(938.778 558) rotate(22.6774)"/>
</clipPath>
</defs>
</svg>
