<svg width="688" height="131" viewBox="0 0 688 131" fill="none" xmlns="http://www.w3.org/2000/svg">
<g filter="url(#filter0_f_1113_21)">
<path d="M40.344 31.608C43.608 31.608 46.424 31.704 48.792 31.896C51.16 32.088 53.336 32.376 55.32 32.76C57.304 33.08 59.288 33.528 61.272 34.104L59.16 47.256C56.92 47.128 54.84 47.064 52.92 47.064C51 47 48.984 46.968 46.872 46.968C44.824 46.904 42.36 46.872 39.48 46.872C37.432 46.872 35.704 47.128 34.296 47.64C32.888 48.088 31.672 48.984 30.648 50.328C29.688 51.672 28.856 53.656 28.152 56.28C27.448 58.904 26.84 62.328 26.328 66.552C25.624 71.416 25.304 75.192 25.368 77.88C25.496 80.504 26.168 82.328 27.384 83.352C28.664 84.376 30.68 84.888 33.432 84.888C38.104 84.888 41.976 84.824 45.048 84.696C48.12 84.504 51.16 84.28 54.168 84.024L54.84 97.272C51.448 98.296 48.088 99.032 44.76 99.48C41.432 99.928 37.4 100.152 32.664 100.152C25.56 100.152 19.96 99.032 15.864 96.792C11.768 94.552 9.048 90.872 7.704 85.752C6.36 80.632 6.296 73.784 7.512 65.208C8.472 58.616 9.72 53.144 11.256 48.792C12.792 44.44 14.808 41.016 17.304 38.52C19.8 36.024 22.936 34.264 26.712 33.24C30.488 32.152 35.032 31.608 40.344 31.608ZM96.5003 31.416C103.476 31.416 109.108 32.472 113.396 34.584C117.684 36.696 120.596 40.28 122.132 45.336C123.668 50.392 123.828 57.464 122.612 66.552C121.716 73.272 120.436 78.84 118.772 83.256C117.108 87.608 114.964 91.032 112.34 93.528C109.78 96.024 106.612 97.784 102.836 98.808C99.0603 99.832 94.6123 100.344 89.4923 100.344C82.2603 100.344 76.5323 99.288 72.3083 97.176C68.0843 95.064 65.2683 91.48 63.8603 86.424C62.5163 81.304 62.4523 74.232 63.6683 65.208C64.6283 58.616 65.9083 53.144 67.5083 48.792C69.1723 44.376 71.2843 40.92 73.8443 38.424C76.4043 35.864 79.5403 34.072 83.2523 33.048C86.9643 31.96 91.3803 31.416 96.5003 31.416ZM96.2123 45.144C93.3963 45.144 91.1243 45.72 89.3963 46.872C87.7323 48.024 86.3883 50.136 85.3643 53.208C84.4043 56.28 83.4763 60.728 82.5803 66.552C81.7483 71.992 81.3963 76.152 81.5243 79.032C81.7163 81.912 82.4843 83.896 83.8282 84.984C85.1723 86.072 87.2203 86.616 89.9723 86.616C92.8523 86.616 95.1243 86.04 96.7883 84.888C98.4523 83.736 99.7963 81.624 100.82 78.552C101.844 75.416 102.804 70.968 103.7 65.208C104.532 59.768 104.852 55.608 104.66 52.728C104.532 49.848 103.764 47.864 102.356 46.776C101.012 45.688 98.9643 45.144 96.2123 45.144ZM206.457 32.76C208.569 32.76 210.137 33.368 211.161 34.584C212.249 35.736 212.697 37.368 212.505 39.48L206.457 99H190.137L195.513 46.392H194.073L180.537 83.928C179.961 85.784 179.065 87.128 177.849 87.96C176.697 88.728 175.129 89.112 173.145 89.112H163.257C161.337 89.112 159.801 88.6 158.649 87.576C157.561 86.552 156.921 85.112 156.729 83.256L153.465 46.392H151.833L142.713 99H126.297L137.145 38.808C137.529 36.696 138.233 35.16 139.257 34.2C140.281 33.24 141.817 32.76 143.865 32.76H159.609C161.529 32.76 163.033 33.272 164.121 34.296C165.273 35.32 165.881 36.792 165.945 38.712L168.441 68.184C168.633 69.784 168.697 71.384 168.633 72.984C168.633 74.584 168.601 76.216 168.537 77.88H169.689C170.137 76.088 170.585 74.456 171.033 72.984C171.481 71.448 171.929 69.912 172.377 68.376L182.745 38.04C183.257 36.184 184.121 34.84 185.337 34.008C186.553 33.176 188.121 32.76 190.041 32.76H206.457ZM244.153 32.76L234.841 99H216.793L226.105 32.76H244.153ZM313.62 32.76L305.172 93.048C304.916 95.096 304.244 96.6 303.156 97.56C302.132 98.52 300.596 99 298.548 99H291.444C289.524 99 288.148 98.52 287.316 97.56C286.484 96.536 285.684 95.128 284.916 93.336L272.436 65.112C271.732 63.64 271.124 62.008 270.612 60.216C270.1 58.424 269.652 56.6 269.268 54.744H268.308C268.372 56.664 268.34 58.584 268.212 60.504C268.148 62.36 267.988 64.28 267.732 66.264L263.028 99H246.324L254.772 38.712C255.028 36.664 255.668 35.16 256.692 34.2C257.78 33.24 259.348 32.76 261.396 32.76H268.5C270.356 32.76 271.7 33.272 272.532 34.296C273.364 35.32 274.164 36.696 274.932 38.424L287.124 65.4C287.828 67 288.5 68.696 289.14 70.488C289.844 72.28 290.452 74.264 290.964 76.44H292.02C291.892 74.392 291.828 72.536 291.828 70.872C291.892 69.144 292.052 67.384 292.308 65.592L297.012 32.76H313.62ZM353.713 31.416C356.273 31.416 358.769 31.512 361.201 31.704C363.633 31.896 366.033 32.184 368.401 32.568C370.769 32.952 373.041 33.464 375.217 34.104L373.105 47.064C370.865 47 368.657 46.968 366.481 46.968C364.305 46.904 362.129 46.872 359.953 46.872C357.777 46.808 355.409 46.776 352.849 46.776C350.353 46.776 348.241 47.096 346.513 47.736C344.785 48.312 343.345 49.336 342.193 50.808C341.041 52.28 340.081 54.296 339.313 56.856C338.545 59.416 337.905 62.648 337.393 66.552C336.689 71.416 336.401 75.192 336.529 77.88C336.721 80.504 337.393 82.328 338.545 83.352C339.697 84.376 341.457 84.888 343.825 84.888C345.937 84.888 347.665 84.6 349.009 84.024C350.417 83.448 351.665 82.744 352.753 81.912C353.841 81.016 354.865 80.216 355.825 79.512L358.705 87.096C357.809 88.248 356.657 89.56 355.249 91.032C353.841 92.504 352.177 93.976 350.257 95.448C348.401 96.856 346.257 98.04 343.825 99C341.393 99.896 338.673 100.344 335.665 100.344C331.249 100.344 327.569 99.224 324.625 96.984C321.681 94.744 319.633 91.064 318.481 85.944C317.393 80.76 317.425 73.848 318.577 65.208C319.537 58.36 320.881 52.728 322.609 48.312C324.401 43.896 326.705 40.472 329.521 38.04C332.337 35.544 335.729 33.816 339.697 32.856C343.665 31.896 348.337 31.416 353.713 31.416ZM374.545 60.792L369.169 99H356.017L355.153 88.728L353.905 85.56L357.361 60.792H374.545ZM431.477 31.416C435.061 31.48 438.837 31.736 442.805 32.184C446.837 32.632 450.645 33.432 454.229 34.584L452.693 46.2C450.709 46.136 448.469 46.104 445.973 46.104C443.477 46.04 440.917 46.008 438.293 46.008C435.669 45.944 433.045 45.912 430.421 45.912C429.077 45.912 427.893 45.976 426.869 46.104C425.909 46.168 425.077 46.36 424.373 46.68C423.733 46.936 423.221 47.352 422.837 47.928C422.453 48.504 422.165 49.272 421.973 50.232C421.909 51.064 421.973 51.8 422.165 52.44C422.357 53.08 422.805 53.656 423.509 54.168C424.277 54.68 425.365 55.288 426.773 55.992L438.293 61.176C441.877 62.776 444.565 64.504 446.357 66.36C448.213 68.216 449.397 70.36 449.909 72.792C450.485 75.224 450.581 78.072 450.197 81.336C449.557 86.328 448.277 90.2 446.357 92.952C444.501 95.704 441.717 97.624 438.005 98.712C434.293 99.8 429.365 100.344 423.221 100.344C420.597 100.344 417.077 100.12 412.661 99.672C408.245 99.288 403.573 98.488 398.645 97.272L400.373 84.696C404.085 84.76 407.413 84.856 410.357 84.984C413.365 85.048 415.893 85.112 417.941 85.176C419.989 85.176 421.461 85.176 422.357 85.176C424.725 85.176 426.581 85.048 427.925 84.792C429.333 84.536 430.357 84.088 430.997 83.448C431.701 82.744 432.149 81.816 432.341 80.664C432.533 79.64 432.533 78.84 432.341 78.264C432.149 77.688 431.733 77.176 431.093 76.728C430.453 76.28 429.557 75.8 428.405 75.288L416.021 69.624C412.501 67.896 409.813 66.04 407.957 64.056C406.165 62.072 405.013 59.896 404.501 57.528C403.989 55.096 403.893 52.472 404.213 49.656C404.661 46.008 405.525 43 406.805 40.632C408.149 38.264 409.909 36.44 412.085 35.16C414.325 33.816 417.045 32.856 420.245 32.28C423.509 31.704 427.253 31.416 431.477 31.416ZM491.938 31.416C498.914 31.416 504.546 32.472 508.834 34.584C513.122 36.696 516.034 40.28 517.57 45.336C519.106 50.392 519.266 57.464 518.05 66.552C517.154 73.272 515.874 78.84 514.21 83.256C512.546 87.608 510.402 91.032 507.778 93.528C505.218 96.024 502.05 97.784 498.274 98.808C494.498 99.832 490.05 100.344 484.93 100.344C477.698 100.344 471.97 99.288 467.746 97.176C463.522 95.064 460.706 91.48 459.298 86.424C457.954 81.304 457.89 74.232 459.106 65.208C460.066 58.616 461.346 53.144 462.946 48.792C464.61 44.376 466.722 40.92 469.282 38.424C471.842 35.864 474.978 34.072 478.69 33.048C482.402 31.96 486.818 31.416 491.938 31.416ZM491.65 45.144C488.834 45.144 486.562 45.72 484.834 46.872C483.17 48.024 481.826 50.136 480.802 53.208C479.842 56.28 478.914 60.728 478.018 66.552C477.186 71.992 476.834 76.152 476.962 79.032C477.154 81.912 477.922 83.896 479.266 84.984C480.61 86.072 482.658 86.616 485.41 86.616C488.29 86.616 490.562 86.04 492.226 84.888C493.89 83.736 495.234 81.624 496.258 78.552C497.282 75.416 498.242 70.968 499.138 65.208C499.97 59.768 500.29 55.608 500.098 52.728C499.97 49.848 499.202 47.864 497.794 46.776C496.45 45.688 494.402 45.144 491.65 45.144ZM558.407 31.416C565.383 31.416 571.015 32.472 575.302 34.584C579.591 36.696 582.503 40.28 584.039 45.336C585.575 50.392 585.735 57.464 584.519 66.552C583.623 73.272 582.343 78.84 580.679 83.256C579.015 87.608 576.871 91.032 574.247 93.528C571.687 96.024 568.519 97.784 564.743 98.808C560.967 99.832 556.519 100.344 551.399 100.344C544.167 100.344 538.439 99.288 534.215 97.176C529.991 95.064 527.175 91.48 525.767 86.424C524.423 81.304 524.359 74.232 525.575 65.208C526.535 58.616 527.815 53.144 529.415 48.792C531.079 44.376 533.191 40.92 535.751 38.424C538.311 35.864 541.447 34.072 545.159 33.048C548.871 31.96 553.287 31.416 558.407 31.416ZM558.119 45.144C555.303 45.144 553.031 45.72 551.303 46.872C549.639 48.024 548.295 50.136 547.271 53.208C546.311 56.28 545.383 60.728 544.487 66.552C543.655 71.992 543.303 76.152 543.431 79.032C543.623 81.912 544.391 83.896 545.734 84.984C547.079 86.072 549.127 86.616 551.879 86.616C554.759 86.616 557.031 86.04 558.695 84.888C560.359 83.736 561.703 81.624 562.727 78.552C563.751 75.416 564.711 70.968 565.607 65.208C566.439 59.768 566.759 55.608 566.567 52.728C566.439 49.848 565.671 47.864 564.263 46.776C562.919 45.688 560.871 45.144 558.119 45.144ZM656.651 32.76L648.203 93.048C647.947 95.096 647.275 96.6 646.187 97.56C645.163 98.52 643.627 99 641.579 99H634.475C632.555 99 631.179 98.52 630.347 97.56C629.515 96.536 628.715 95.128 627.947 93.336L615.467 65.112C614.763 63.64 614.155 62.008 613.643 60.216C613.131 58.424 612.683 56.6 612.299 54.744H611.339C611.403 56.664 611.371 58.584 611.243 60.504C611.179 62.36 611.019 64.28 610.763 66.264L606.059 99H589.355L597.803 38.712C598.059 36.664 598.699 35.16 599.723 34.2C600.811 33.24 602.379 32.76 604.427 32.76H611.531C613.387 32.76 614.731 33.272 615.563 34.296C616.395 35.32 617.195 36.696 617.963 38.424L630.155 65.4C630.859 67 631.531 68.696 632.171 70.488C632.875 72.28 633.483 74.264 633.995 76.44H635.051C634.923 74.392 634.859 72.536 634.859 70.872C634.923 69.144 635.083 67.384 635.339 65.592L640.043 32.76H656.651Z" fill="url(#paint0_linear_1113_21)"/>
</g>
<path d="M52.344 28.608C55.608 28.608 58.424 28.704 60.792 28.896C63.16 29.088 65.336 29.376 67.32 29.76C69.304 30.08 71.288 30.528 73.272 31.104L71.16 44.256C68.92 44.128 66.84 44.064 64.92 44.064C63 44 60.984 43.968 58.872 43.968C56.824 43.904 54.36 43.872 51.48 43.872C49.432 43.872 47.704 44.128 46.296 44.64C44.888 45.088 43.672 45.984 42.648 47.328C41.688 48.672 40.856 50.656 40.152 53.28C39.448 55.904 38.84 59.328 38.328 63.552C37.624 68.416 37.304 72.192 37.368 74.88C37.496 77.504 38.168 79.328 39.384 80.352C40.664 81.376 42.68 81.888 45.432 81.888C50.104 81.888 53.976 81.824 57.048 81.696C60.12 81.504 63.16 81.28 66.168 81.024L66.84 94.272C63.448 95.296 60.088 96.032 56.76 96.48C53.432 96.928 49.4 97.152 44.664 97.152C37.56 97.152 31.96 96.032 27.864 93.792C23.768 91.552 21.048 87.872 19.704 82.752C18.36 77.632 18.296 70.784 19.512 62.208C20.472 55.616 21.72 50.144 23.256 45.792C24.792 41.44 26.808 38.016 29.304 35.52C31.8 33.024 34.936 31.264 38.712 30.24C42.488 29.152 47.032 28.608 52.344 28.608ZM108.5 28.416C115.476 28.416 121.108 29.472 125.396 31.584C129.684 33.696 132.596 37.28 134.132 42.336C135.668 47.392 135.828 54.464 134.612 63.552C133.716 70.272 132.436 75.84 130.772 80.256C129.108 84.608 126.964 88.032 124.34 90.528C121.78 93.024 118.612 94.784 114.836 95.808C111.06 96.832 106.612 97.344 101.492 97.344C94.2603 97.344 88.5323 96.288 84.3083 94.176C80.0843 92.064 77.2683 88.48 75.8603 83.424C74.5163 78.304 74.4523 71.232 75.6683 62.208C76.6283 55.616 77.9083 50.144 79.5083 45.792C81.1723 41.376 83.2843 37.92 85.8443 35.424C88.4043 32.864 91.5403 31.072 95.2523 30.048C98.9643 28.96 103.38 28.416 108.5 28.416ZM108.212 42.144C105.396 42.144 103.124 42.72 101.396 43.872C99.7323 45.024 98.3883 47.136 97.3643 50.208C96.4043 53.28 95.4763 57.728 94.5803 63.552C93.7483 68.992 93.3963 73.152 93.5243 76.032C93.7163 78.912 94.4843 80.896 95.8282 81.984C97.1723 83.072 99.2203 83.616 101.972 83.616C104.852 83.616 107.124 83.04 108.788 81.888C110.452 80.736 111.796 78.624 112.82 75.552C113.844 72.416 114.804 67.968 115.7 62.208C116.532 56.768 116.852 52.608 116.66 49.728C116.532 46.848 115.764 44.864 114.356 43.776C113.012 42.688 110.964 42.144 108.212 42.144ZM218.457 29.76C220.569 29.76 222.137 30.368 223.161 31.584C224.249 32.736 224.697 34.368 224.505 36.48L218.457 96H202.137L207.513 43.392H206.073L192.537 80.928C191.961 82.784 191.065 84.128 189.849 84.96C188.697 85.728 187.129 86.112 185.145 86.112H175.257C173.337 86.112 171.801 85.6 170.649 84.576C169.561 83.552 168.921 82.112 168.729 80.256L165.465 43.392H163.833L154.713 96H138.297L149.145 35.808C149.529 33.696 150.233 32.16 151.257 31.2C152.281 30.24 153.817 29.76 155.865 29.76H171.609C173.529 29.76 175.033 30.272 176.121 31.296C177.273 32.32 177.881 33.792 177.945 35.712L180.441 65.184C180.633 66.784 180.697 68.384 180.633 69.984C180.633 71.584 180.601 73.216 180.537 74.88H181.689C182.137 73.088 182.585 71.456 183.033 69.984C183.481 68.448 183.929 66.912 184.377 65.376L194.745 35.04C195.257 33.184 196.121 31.84 197.337 31.008C198.553 30.176 200.121 29.76 202.041 29.76H218.457ZM256.153 29.76L246.841 96H228.793L238.105 29.76H256.153ZM325.62 29.76L317.172 90.048C316.916 92.096 316.244 93.6 315.156 94.56C314.132 95.52 312.596 96 310.548 96H303.444C301.524 96 300.148 95.52 299.316 94.56C298.484 93.536 297.684 92.128 296.916 90.336L284.436 62.112C283.732 60.64 283.124 59.008 282.612 57.216C282.1 55.424 281.652 53.6 281.268 51.744H280.308C280.372 53.664 280.34 55.584 280.212 57.504C280.148 59.36 279.988 61.28 279.732 63.264L275.028 96H258.324L266.772 35.712C267.028 33.664 267.668 32.16 268.692 31.2C269.78 30.24 271.348 29.76 273.396 29.76H280.5C282.356 29.76 283.7 30.272 284.532 31.296C285.364 32.32 286.164 33.696 286.932 35.424L299.124 62.4C299.828 64 300.5 65.696 301.14 67.488C301.844 69.28 302.452 71.264 302.964 73.44H304.02C303.892 71.392 303.828 69.536 303.828 67.872C303.892 66.144 304.052 64.384 304.308 62.592L309.012 29.76H325.62ZM365.713 28.416C368.273 28.416 370.769 28.512 373.201 28.704C375.633 28.896 378.033 29.184 380.401 29.568C382.769 29.952 385.041 30.464 387.217 31.104L385.105 44.064C382.865 44 380.657 43.968 378.481 43.968C376.305 43.904 374.129 43.872 371.953 43.872C369.777 43.808 367.409 43.776 364.849 43.776C362.353 43.776 360.241 44.096 358.513 44.736C356.785 45.312 355.345 46.336 354.193 47.808C353.041 49.28 352.081 51.296 351.313 53.856C350.545 56.416 349.905 59.648 349.393 63.552C348.689 68.416 348.401 72.192 348.529 74.88C348.721 77.504 349.393 79.328 350.545 80.352C351.697 81.376 353.457 81.888 355.825 81.888C357.937 81.888 359.665 81.6 361.009 81.024C362.417 80.448 363.665 79.744 364.753 78.912C365.841 78.016 366.865 77.216 367.825 76.512L370.705 84.096C369.809 85.248 368.657 86.56 367.249 88.032C365.841 89.504 364.177 90.976 362.257 92.448C360.401 93.856 358.257 95.04 355.825 96C353.393 96.896 350.673 97.344 347.665 97.344C343.249 97.344 339.569 96.224 336.625 93.984C333.681 91.744 331.633 88.064 330.481 82.944C329.393 77.76 329.425 70.848 330.577 62.208C331.537 55.36 332.881 49.728 334.609 45.312C336.401 40.896 338.705 37.472 341.521 35.04C344.337 32.544 347.729 30.816 351.697 29.856C355.665 28.896 360.337 28.416 365.713 28.416ZM386.545 57.792L381.169 96H368.017L367.153 85.728L365.905 82.56L369.361 57.792H386.545ZM443.477 28.416C447.061 28.48 450.837 28.736 454.805 29.184C458.837 29.632 462.645 30.432 466.229 31.584L464.693 43.2C462.709 43.136 460.469 43.104 457.973 43.104C455.477 43.04 452.917 43.008 450.293 43.008C447.669 42.944 445.045 42.912 442.421 42.912C441.077 42.912 439.893 42.976 438.869 43.104C437.909 43.168 437.077 43.36 436.373 43.68C435.733 43.936 435.221 44.352 434.837 44.928C434.453 45.504 434.165 46.272 433.973 47.232C433.909 48.064 433.973 48.8 434.165 49.44C434.357 50.08 434.805 50.656 435.509 51.168C436.277 51.68 437.365 52.288 438.773 52.992L450.293 58.176C453.877 59.776 456.565 61.504 458.357 63.36C460.213 65.216 461.397 67.36 461.909 69.792C462.485 72.224 462.581 75.072 462.197 78.336C461.557 83.328 460.277 87.2 458.357 89.952C456.501 92.704 453.717 94.624 450.005 95.712C446.293 96.8 441.365 97.344 435.221 97.344C432.597 97.344 429.077 97.12 424.661 96.672C420.245 96.288 415.573 95.488 410.645 94.272L412.373 81.696C416.085 81.76 419.413 81.856 422.357 81.984C425.365 82.048 427.893 82.112 429.941 82.176C431.989 82.176 433.461 82.176 434.357 82.176C436.725 82.176 438.581 82.048 439.925 81.792C441.333 81.536 442.357 81.088 442.997 80.448C443.701 79.744 444.149 78.816 444.341 77.664C444.533 76.64 444.533 75.84 444.341 75.264C444.149 74.688 443.733 74.176 443.093 73.728C442.453 73.28 441.557 72.8 440.405 72.288L428.021 66.624C424.501 64.896 421.813 63.04 419.957 61.056C418.165 59.072 417.013 56.896 416.501 54.528C415.989 52.096 415.893 49.472 416.213 46.656C416.661 43.008 417.525 40 418.805 37.632C420.149 35.264 421.909 33.44 424.085 32.16C426.325 30.816 429.045 29.856 432.245 29.28C435.509 28.704 439.253 28.416 443.477 28.416ZM503.938 28.416C510.914 28.416 516.546 29.472 520.834 31.584C525.122 33.696 528.034 37.28 529.57 42.336C531.106 47.392 531.266 54.464 530.05 63.552C529.154 70.272 527.874 75.84 526.21 80.256C524.546 84.608 522.402 88.032 519.778 90.528C517.218 93.024 514.05 94.784 510.274 95.808C506.498 96.832 502.05 97.344 496.93 97.344C489.698 97.344 483.97 96.288 479.746 94.176C475.522 92.064 472.706 88.48 471.298 83.424C469.954 78.304 469.89 71.232 471.106 62.208C472.066 55.616 473.346 50.144 474.946 45.792C476.61 41.376 478.722 37.92 481.282 35.424C483.842 32.864 486.978 31.072 490.69 30.048C494.402 28.96 498.818 28.416 503.938 28.416ZM503.65 42.144C500.834 42.144 498.562 42.72 496.834 43.872C495.17 45.024 493.826 47.136 492.802 50.208C491.842 53.28 490.914 57.728 490.018 63.552C489.186 68.992 488.834 73.152 488.962 76.032C489.154 78.912 489.922 80.896 491.266 81.984C492.61 83.072 494.658 83.616 497.41 83.616C500.29 83.616 502.562 83.04 504.226 81.888C505.89 80.736 507.234 78.624 508.258 75.552C509.282 72.416 510.242 67.968 511.138 62.208C511.97 56.768 512.29 52.608 512.098 49.728C511.97 46.848 511.202 44.864 509.794 43.776C508.45 42.688 506.402 42.144 503.65 42.144ZM570.407 28.416C577.383 28.416 583.015 29.472 587.302 31.584C591.591 33.696 594.503 37.28 596.039 42.336C597.575 47.392 597.735 54.464 596.519 63.552C595.623 70.272 594.343 75.84 592.679 80.256C591.015 84.608 588.871 88.032 586.247 90.528C583.687 93.024 580.519 94.784 576.743 95.808C572.967 96.832 568.519 97.344 563.399 97.344C556.167 97.344 550.439 96.288 546.215 94.176C541.991 92.064 539.175 88.48 537.767 83.424C536.423 78.304 536.359 71.232 537.575 62.208C538.535 55.616 539.815 50.144 541.415 45.792C543.079 41.376 545.191 37.92 547.751 35.424C550.311 32.864 553.447 31.072 557.159 30.048C560.871 28.96 565.287 28.416 570.407 28.416ZM570.119 42.144C567.303 42.144 565.031 42.72 563.303 43.872C561.639 45.024 560.295 47.136 559.271 50.208C558.311 53.28 557.383 57.728 556.487 63.552C555.655 68.992 555.303 73.152 555.431 76.032C555.623 78.912 556.391 80.896 557.734 81.984C559.079 83.072 561.127 83.616 563.879 83.616C566.759 83.616 569.031 83.04 570.695 81.888C572.359 80.736 573.703 78.624 574.727 75.552C575.751 72.416 576.711 67.968 577.607 62.208C578.439 56.768 578.759 52.608 578.567 49.728C578.439 46.848 577.671 44.864 576.263 43.776C574.919 42.688 572.871 42.144 570.119 42.144ZM668.651 29.76L660.203 90.048C659.947 92.096 659.275 93.6 658.187 94.56C657.163 95.52 655.627 96 653.579 96H646.475C644.555 96 643.179 95.52 642.347 94.56C641.515 93.536 640.715 92.128 639.947 90.336L627.467 62.112C626.763 60.64 626.155 59.008 625.643 57.216C625.131 55.424 624.683 53.6 624.299 51.744H623.339C623.403 53.664 623.371 55.584 623.243 57.504C623.179 59.36 623.019 61.28 622.763 63.264L618.059 96H601.355L609.803 35.712C610.059 33.664 610.699 32.16 611.723 31.2C612.811 30.24 614.379 29.76 616.427 29.76H623.531C625.387 29.76 626.731 30.272 627.563 31.296C628.395 32.32 629.195 33.696 629.963 35.424L642.155 62.4C642.859 64 643.531 65.696 644.171 67.488C644.875 69.28 645.483 71.264 645.995 73.44H647.051C646.923 71.392 646.859 69.536 646.859 67.872C646.923 66.144 647.083 64.384 647.339 62.592L652.043 29.76H668.651Z" fill="white"/>
<defs>
<filter id="filter0_f_1113_21" x="0.687988" y="26.416" width="660.963" height="78.9282" filterUnits="userSpaceOnUse" color-interpolation-filters="sRGB">
<feFlood flood-opacity="0" result="BackgroundImageFix"/>
<feBlend mode="normal" in="SourceGraphic" in2="BackgroundImageFix" result="shape"/>
<feGaussianBlur stdDeviation="2.5" result="effect1_foregroundBlur_1113_21"/>
</filter>
<linearGradient id="paint0_linear_1113_21" x1="22.9006" y1="44.1826" x2="694.095" y2="111.291" gradientUnits="userSpaceOnUse">
<stop stop-color="#9E00F6"/>
<stop offset="0.514137" stop-color="#FEADD5"/>
<stop offset="1" stop-color="#FFA62E"/>
</linearGradient>
</defs>
</svg>
