<svg width="140" height="196" viewBox="0 0 140 196" fill="none" xmlns="http://www.w3.org/2000/svg">
<path d="M139.326 71.3281L139.083 154.709L69.7588 195.002L70.0017 111.604L139.326 71.3281Z" fill="#4587E7"/>
<path d="M110.156 88.2793L96.8286 96.0187V179.26L110.156 171.521V88.2793Z" fill="#FFA62E"/>
<path d="M134.797 73.9629L119.735 82.7087V113.493L127.266 100.738L134.797 104.747V73.9629Z" fill="#FFA62E"/>
<path d="M70.0014 111.604L69.7585 195.002L0 154.726L0.24294 71.3281L70.0014 111.604Z" fill="#437BCD"/>
<path d="M40.8482 94.7695L25.7339 86.041V169.578L40.8482 178.289V94.7695Z" fill="#DB8E25"/>
<path d="M139.327 71.3248L70.0021 111.601L0.243652 71.3248L69.5683 31.0488L139.327 71.3248Z" fill="#5092F3"/>
<path d="M110.156 88.2777L96.8288 96.0344L27.0703 55.7585L40.3973 47.9844L110.156 88.2777Z" fill="#EE9927"/>
<path d="M110.156 54.4748L40.8482 94.7681L25.7339 86.0396L95.0585 45.7637L110.156 54.4748Z" fill="#EE9927"/>
<path d="M71.9282 70.0234L119.735 82.691L134.798 73.9625L87.0426 61.2949L71.9282 70.0234Z" fill="#EE9927"/>
<path d="M76.1616 77.6408L64.8128 109.605L49.7158 100.894L61.0646 68.9297L76.1616 77.6408Z" fill="#EE9927"/>
<path d="M64.969 132.544L64.8128 109.604L49.7158 100.893L49.8546 123.816L57.4205 119.616L64.969 132.544Z" fill="#DB8E25"/>
<path d="M92.4365 0.818359L108.731 10.3624C110.709 11.5077 112.201 13.9718 112.826 17.5292C113.642 22.5607 113.268 27.7134 111.733 32.5741L95.4386 23.0127C96.9725 18.1578 97.3469 13.0109 96.5318 7.98509C95.8377 4.42775 94.4147 1.96365 92.4365 0.818359Z" fill="#DB8E25"/>
<path d="M111.731 32.4854L95.4371 23.0107C96.971 18.1558 97.3455 13.0089 96.5303 7.98313C95.8362 4.51256 94.4133 1.96169 92.4351 0.816406L108.729 10.3605C110.708 11.5058 112.2 13.9699 112.825 17.5272C113.641 22.5587 113.266 27.7114 111.731 32.5721V32.4854Z" fill="#DB8E25"/>
<path d="M65.2627 62.1309V64.4041L72.5682 68.6555C73.9603 69.2808 75.5305 69.3855 76.9932 68.9505L65.2627 62.1309Z" fill="#DB8E25"/>
<path d="M85.427 40.543C84.0214 42.2783 82.4943 44.0135 80.8632 45.6621C76.7592 50.0139 72.0901 53.7959 66.9809 56.9067C66.3735 57.2711 65.8009 57.5835 65.2456 57.8611V62.1299L76.9761 68.9496C77.6589 68.8101 78.3314 68.6246 78.9891 68.3943C80.4883 67.8713 81.9302 67.1969 83.2926 66.3814C88.4059 63.2695 93.0756 59.4812 97.1749 55.1194C98.806 53.3841 100.333 51.7356 101.739 50.0176L85.427 40.543Z" fill="#DB8E25"/>
<path d="M101.721 50.0186L85.4268 40.544C89.8591 35.3993 93.2587 29.4486 95.4394 23.0176L111.734 32.4922C109.545 38.9197 106.146 44.8689 101.721 50.0186Z" fill="#DB8E25"/>
<path d="M83.1025 31.3052C85.1044 27.8278 87.379 24.5145 89.9048 21.3968L73.6105 11.9395C71.0847 15.0512 68.8101 18.3586 66.8082 21.8306C61.9463 30.2258 58.1569 39.1979 55.5288 48.5366L65.2464 55.4778V64.588L72.4825 68.7874C72.1232 68.589 71.8098 68.317 71.5628 67.9892C70.5911 66.7224 70.4002 64.5186 71.0076 61.5513C73.5135 50.9242 77.59 40.7301 83.1025 31.3052Z" fill="#FFA62E"/>
<path d="M89.9047 21.3972L73.6104 11.9399C74.9445 10.2995 76.3697 8.73524 77.8792 7.25462C77.9833 7.1505 78.0874 7.06374 78.1742 6.95962C80.2409 4.89479 82.5412 3.07784 85.0285 1.54553C86.1026 0.882263 87.2735 0.39048 88.4991 0.0878906L104.793 9.56255C103.568 9.86514 102.397 10.3569 101.323 11.0202C98.8012 12.5411 96.4708 14.3588 94.3817 16.4343L94.0867 16.7293C92.5772 18.2038 91.152 19.7623 89.8179 21.3972H89.9047Z" fill="#FFA62E"/>
<path d="M104.863 9.56405L88.499 0.0893903C89.188 -0.0297968 89.8924 -0.0297968 90.5814 0.0893903C91.2417 0.190532 91.8773 0.414173 92.4555 0.748799L108.75 10.2235C108.172 9.88883 107.536 9.66519 106.876 9.56405C106.187 9.436 105.482 9.436 104.793 9.56405H104.863Z" fill="#DB8E25"/>
<path d="M112.931 17.3039C113.755 22.3582 113.381 27.5352 111.838 32.4183C109.704 39.5329 104.498 47.6194 97.1924 55.1679C93.0837 59.5295 88.4157 63.328 83.3101 66.4646C81.9366 67.2751 80.4899 67.9548 78.9893 68.4948C75.3105 69.7095 72.8116 69.536 71.5796 67.9395C70.6078 66.6728 70.417 64.469 71.0243 61.5016C73.5466 50.8717 77.6407 40.6775 83.1713 31.2556C86.1904 25.9218 89.9143 21.0189 94.2424 16.6792L94.5374 16.3842C96.6265 14.3087 98.9569 12.4911 101.479 10.9701C103.126 9.83755 105.106 9.29343 107.101 9.42574C109.895 9.92898 112.029 12.7228 112.931 17.3039ZM111.734 32.4356C113.249 27.5885 113.612 22.4546 112.793 17.4428C111.89 12.8616 109.773 10.0852 106.841 9.63398C104.873 9.50725 102.92 10.0384 101.288 11.1437C98.812 12.6708 96.5233 14.482 94.468 16.5404L94.173 16.8354C89.8617 21.1577 86.1551 26.0435 83.1539 31.3597C77.6815 40.7635 73.6347 50.9273 71.1458 61.519C70.5384 64.4863 70.712 66.6207 71.6837 67.8701C72.8984 69.4319 75.3625 69.6054 79.0066 68.3907C80.4998 67.8667 81.9359 67.1922 83.2928 66.3778C88.4061 63.2659 93.0758 59.4777 97.1751 55.1158C104.446 47.602 109.617 39.4982 111.751 32.5571L111.734 32.4356Z" fill="#DB8E25"/>
<path d="M48.7461 42.375L65.0404 51.8323C68.3889 53.7348 71.1135 56.5679 72.8839 59.9881C74.758 63.7016 72.8839 68.6646 67.2616 74.8422L50.9673 65.3675C56.5722 59.242 58.4637 54.227 56.5896 50.5135C54.8239 47.0944 52.0977 44.2657 48.7461 42.375Z" fill="#DB8E25"/>
<path d="M67.2631 74.8373L50.9688 65.3626C51.5587 64.7379 52.0967 64.1132 52.5826 63.5059L68.8769 72.9805C68.391 73.5879 67.8531 74.2126 67.2631 74.8373Z" fill="#DB8E25"/>
<path d="M68.8769 72.9815L52.5825 63.5069C56.9207 58.2142 58.2743 53.8413 56.591 50.5096C54.8253 47.0905 52.0992 44.2618 48.7476 42.3711L65.0419 51.8284C68.3904 53.7309 71.115 56.564 72.8854 59.9842C74.6207 63.316 73.2151 67.6889 68.8769 72.9815Z" fill="#DB8E25"/>
<path d="M35.3827 87.255L19.0884 77.7977C22.3334 79.6891 27.383 79.4289 33.5954 77.0342C35.8511 76.1445 38.0377 75.0889 40.1374 73.8759C44.1543 71.6031 47.8049 68.7364 50.9656 65.373L67.2599 74.8477C64.0946 78.206 60.4449 81.072 56.4317 83.3506C54.3355 84.5651 52.1483 85.6152 49.8897 86.4915C43.6774 88.9035 38.6277 89.1465 35.3827 87.255Z" fill="#DB8E25"/>
<path d="M35.3832 87.2581L19.0889 77.8008C22.0175 79.2 25.3572 79.4778 28.4768 78.5817L44.7711 88.0563C41.6504 88.9569 38.307 88.6726 35.3832 87.2581Z" fill="#DB8E25"/>
<path d="M44.7714 88.0552L28.4771 78.5805C30.2224 78.2052 31.9344 77.6887 33.5961 77.0361C35.8519 76.1464 38.0385 75.0908 40.1382 73.8779C44.1551 71.605 47.8057 68.7384 50.9664 65.375L67.2607 74.8497C64.0954 78.208 60.4456 81.074 56.4325 83.3526C54.3363 84.5671 52.1491 85.6172 49.8905 86.4934C48.2317 87.1589 46.5191 87.6813 44.7714 88.0552Z" fill="#DB8E25"/>
<path d="M35.2967 87.4091L19.0891 77.9345C18.481 77.5805 17.926 77.1424 17.4406 76.633C14.9364 73.4804 13.6492 69.5326 13.8139 65.5098C13.6935 60.6206 14.8924 55.7892 17.2844 51.5234C19.4979 47.8625 22.5868 44.8094 26.2732 42.6388C27.0995 42.1459 27.9711 41.7333 28.8761 41.4067C35.3314 39.1855 40.329 38.8211 44.5978 40.2961C46.0805 40.7966 47.5103 41.4418 48.8666 42.2223L65.1609 51.6969C63.8051 50.9108 62.3753 50.2598 60.8921 49.7534C56.6233 48.2958 51.6257 48.6428 45.1705 50.8814C44.2655 51.208 43.3938 51.6205 42.5675 52.1134C38.8734 54.2741 35.7823 57.3294 33.5788 60.9981C31.1867 65.2639 29.9879 70.0953 30.1082 74.9845C29.9497 79.0064 31.2363 82.9521 33.7349 86.1077C34.1982 86.606 34.723 87.0433 35.2967 87.4091Z" fill="#FFA62E"/>
<path d="M35.2962 87.4134L19.0886 77.9387C18.4805 77.5848 17.9255 77.1466 17.4401 76.6372C14.9359 73.4847 13.6487 69.5368 13.8134 65.5141C13.693 60.6248 14.8919 55.7935 17.2839 51.5277C17.8775 50.4786 18.5565 49.4803 19.3142 48.543L35.6085 58.0176C34.8405 58.9426 34.1498 59.9293 33.5436 60.9676C31.1515 65.2334 29.9527 70.0648 30.073 74.954C29.9146 78.9759 31.2011 82.9216 33.6997 86.0772C34.1898 86.5814 34.744 87.019 35.3483 87.3787L35.2962 87.4134Z" fill="#FFA62E"/>
<path d="M35.6088 58.0521L19.3145 48.5428C21.2658 46.1763 23.6146 44.168 26.2556 42.6081C27.0819 42.1152 27.9535 41.7027 28.8585 41.3761C30.5065 40.803 32.1868 40.3279 33.8908 39.9531L50.1852 49.4278C48.4791 49.7944 46.7982 50.2696 45.1528 50.8507C44.2478 51.1773 43.3762 51.5899 42.5499 52.0828C39.9011 53.6317 37.5504 55.6415 35.6088 58.0174V58.0521Z" fill="#FFA62E"/>
<path d="M50.1679 49.4601L33.8735 39.9854C37.3977 39.1053 41.0962 39.2134 44.5629 40.2978C46.0455 40.7983 47.4754 41.4435 48.8317 42.2239L65.126 51.6986C63.7702 50.9124 62.3404 50.2615 60.8572 49.7551C57.3887 48.6773 53.6905 48.5753 50.1679 49.4601Z" fill="#FFA62E"/>
<path d="M72.987 59.87C74.8958 63.6529 72.987 68.7199 67.3126 74.9496C64.1307 78.3231 60.4566 81.1957 56.4151 83.4699C54.3234 84.7223 52.1359 85.8074 49.873 86.7148C42.4634 89.5781 36.7022 89.3872 33.6481 86.1769C31.1495 83.0214 29.8629 79.0756 30.0214 75.0537C29.901 70.1645 31.0999 65.3331 33.4919 61.0673C35.6955 57.3986 38.7866 54.3433 42.4807 52.1827C43.307 51.6898 44.1786 51.2772 45.0836 50.9506C51.5389 48.7121 56.5365 48.365 60.8053 49.8227C66.0212 51.4542 70.3928 55.0599 72.987 59.87ZM67.2606 74.8455C72.8829 68.7026 74.757 63.705 72.8829 59.9914C70.314 55.1668 65.9512 51.5456 60.7359 49.9094C56.4671 48.4518 51.4868 48.7989 45.1184 51.02C44.2166 51.3474 43.3456 51.7539 42.5154 52.2347C38.8705 54.3932 35.8178 57.422 33.6308 61.05C31.24 65.2785 30.0406 70.0761 30.1602 74.9322C29.9845 78.9377 31.2668 82.8711 33.7696 86.0034C36.8063 89.1963 42.5328 89.4739 49.9077 86.524C52.1663 85.6477 54.3536 84.5976 56.4498 83.3831C60.4629 81.1045 64.1127 78.2385 67.2779 74.8802L67.2606 74.8455Z" fill="#DB8E25"/>
</svg>
