<svg width="1919" height="1116" viewBox="0 0 1919 1116" fill="none" xmlns="http://www.w3.org/2000/svg">
<path fill-rule="evenodd" clip-rule="evenodd" d="M1599.17 57.8954C1707.89 57.8954 1811.89 0 1919 0C1919 325.667 1919 790.333 1919 1116C1811.89 1116 1706.89 1116 1598.17 1116C1489.45 1116 1388.06 1116 1279.33 1116C1170.61 1116 1063.23 1116 954.503 1116C845.783 1116 748.39 1116 639.667 1116C530.947 1116 421.56 1116 312.837 1116C204.117 1116 106.612 1116 0 1116C0 790.333 0 325.667 0 0C106.612 0 211.11 57.8954 319.833 57.8954C428.553 57.8954 530.944 0 639.667 0C748.387 0 850.777 57.8954 959.5 57.8954C1068.22 57.8954 1170.61 0 1279.33 0C1388.05 0 1490.44 57.8954 1599.17 57.8954Z" fill="url(#paint0_linear_466_121)"/>
<defs>
<linearGradient id="paint0_linear_466_121" x1="-1.00003" y1="4.47228e-05" x2="1821.76" y2="1133.39" gradientUnits="userSpaceOnUse">
<stop stop-color="#9E00F6"/>
<stop offset="1" stop-color="#3DB9EA"/>
</linearGradient>
</defs>
</svg>
