<svg width="206" height="161" viewBox="0 0 206 161" fill="none" xmlns="http://www.w3.org/2000/svg">
<path d="M158.312 85.1191H48.3613V123.21C48.3613 131.426 53.8165 139.642 64.5944 145.91C86.1767 158.447 121 158.447 142.423 145.91C153.016 139.642 158.471 131.426 158.312 123.21V85.1191Z" fill="#487ECD"/>
<path d="M48.2549 103.018L103.283 135.027L158.311 102.804V85.1191H48.2549V103.018Z" fill="#322A78" fill-opacity="0.25"/>
<path d="M205.237 59.668L205.211 67.3502L103.284 127.021L103.311 119.339L205.237 59.668Z" fill="#3974CB"/>
<path d="M103.31 119.339L103.284 127.021L0.694824 67.3502L0.721306 59.668L103.31 119.339Z" fill="#2D5A9B"/>
<path d="M205.236 59.6707L103.309 119.341L0.720215 59.6707L102.647 0L205.236 59.6707Z" fill="#5092F3"/>
<path d="M119.04 56.0156C121.449 59.6167 120.205 63.8846 115.226 66.6854C111.431 68.6276 107.235 69.6399 102.979 69.6399C98.7221 69.6399 94.5257 68.6276 90.731 66.6854C90.3022 66.4315 89.8868 66.1555 89.4863 65.8585C90.5003 67.309 91.8323 68.5046 93.3791 69.3529C97.167 71.2863 101.354 72.2938 105.6 72.2938C109.847 72.2938 114.033 71.2863 117.821 69.3529C124.15 65.7785 124.521 59.9634 119.04 56.0156Z" fill="#3974CB"/>
<path d="M117.477 69.6465C115.429 70.7373 113.221 71.4936 110.937 71.8871L147.64 93.2267V132.465H152.936V90.2392L117.477 69.6465Z" fill="#FFA62E"/>
<path d="M152.724 131.295H148.169C148.169 131.295 138.159 145.539 144.727 159.81H156.14C162.734 145.539 152.724 131.295 152.724 131.295Z" fill="#FFA62E"/>
<path d="M154.048 157.385C154.211 155.915 154.29 154.437 154.287 152.957C154.374 152.07 154.374 151.177 154.287 150.29C154.287 149.436 154.154 148.556 154.075 147.623C153.995 146.689 153.836 145.915 153.704 145.088C153.572 144.262 153.413 143.435 153.254 142.634C152.857 141.087 152.565 139.62 152.168 138.447C151.787 137.113 151.327 135.804 150.791 134.525C151.156 135.903 151.439 137.302 151.638 138.713C151.956 139.914 152.115 141.381 152.406 142.955C152.406 143.728 152.592 144.555 152.671 145.382C152.786 146.213 152.848 147.05 152.857 147.889C152.857 148.743 152.857 149.596 152.857 150.423C152.923 151.222 152.923 152.025 152.857 152.824C152.763 154.237 152.595 155.644 152.353 157.039C152.089 158.159 151.903 159.066 151.744 159.706H153.651C153.783 159.146 153.916 158.399 154.048 157.385Z" fill="#FFBA5E"/>
<path d="M148.488 157.093C148.233 155.7 148.065 154.292 147.985 152.878C147.918 152.079 147.918 151.276 147.985 150.477C147.985 149.651 147.985 148.797 147.985 147.943C147.994 147.105 148.056 146.267 148.17 145.436C148.17 144.609 148.329 143.782 148.408 143.009C148.7 141.462 148.885 139.968 149.203 138.767C149.486 137.396 149.848 136.042 150.289 134.713C149.777 136.019 149.344 137.355 148.991 138.714C148.567 139.888 148.303 141.382 147.879 142.902C147.746 143.702 147.588 144.529 147.455 145.356C147.278 146.192 147.154 147.038 147.084 147.89L146.846 150.558C146.773 151.445 146.773 152.337 146.846 153.225C146.772 154.611 146.772 156 146.846 157.386C146.978 158.32 147.084 159.067 147.19 159.734H148.991C148.991 159.12 148.726 158.213 148.488 157.093Z" fill="#FFBA5E"/>
<path d="M157.253 155.414C157.409 154.534 157.48 153.641 157.465 152.747C157.494 151.856 157.449 150.963 157.333 150.079C157.251 149.182 157.11 148.29 156.909 147.412C156.172 144.206 154.938 141.136 153.255 138.316C152.548 137.103 151.742 135.952 150.845 134.875C151.643 136.041 152.36 137.262 152.99 138.529C154.442 141.416 155.442 144.511 155.956 147.705C156.08 148.589 156.151 149.48 156.167 150.373C156.241 151.26 156.241 152.153 156.167 153.04C156.125 153.823 156.01 154.6 155.823 155.361C155.722 156.034 155.553 156.696 155.32 157.335C155.038 158.263 154.656 159.158 154.181 160.002H156.22C156.351 159.706 156.466 159.404 156.565 159.095C156.702 158.702 156.817 158.301 156.909 157.895C157.112 157.083 157.227 156.251 157.253 155.414Z" fill="#FFBA5E"/>
<path d="M150.447 134.713L149.52 159.814H151.374L150.447 134.713Z" fill="#FFBA5E"/>
<path d="M146.74 159.756C146.274 158.91 145.901 158.016 145.628 157.089C145.386 156.45 145.208 155.789 145.098 155.115C144.908 154.355 144.802 153.577 144.78 152.794C144.706 151.907 144.706 151.014 144.78 150.127C144.806 149.234 144.886 148.343 145.019 147.459C145.524 144.267 146.516 141.171 147.958 138.283C148.588 137.016 149.304 135.795 150.103 134.629C149.22 135.711 148.423 136.862 147.72 138.07C146.025 140.885 144.791 143.956 144.065 147.166C143.868 148.046 143.717 148.937 143.615 149.833C143.555 150.721 143.555 151.613 143.615 152.501C143.592 153.394 143.654 154.287 143.801 155.168C143.878 155.943 144.02 156.711 144.224 157.462C144.224 157.916 144.463 158.289 144.569 158.689C144.675 159.089 144.78 159.276 144.913 159.57H146.952L146.74 159.756Z" fill="#FFBA5E"/>
<path d="M145.283 131.293C145.309 130.27 145.634 129.278 146.217 128.44C146.8 127.603 147.616 126.957 148.561 126.583C149.507 126.21 150.541 126.126 151.533 126.341C152.526 126.557 153.434 127.062 154.143 127.795C154.852 128.527 155.331 129.454 155.52 130.459C155.708 131.465 155.599 132.504 155.204 133.446C154.81 134.389 154.148 135.194 153.302 135.759C152.456 136.325 151.463 136.627 150.447 136.628C149.758 136.628 149.075 136.489 148.44 136.219C147.805 135.95 147.23 135.555 146.748 135.057C146.267 134.56 145.889 133.971 145.638 133.324C145.386 132.678 145.266 131.987 145.283 131.293Z" fill="#FFA62E"/>
</svg>
