<svg width="412" height="486" viewBox="0 0 412 486" fill="none" xmlns="http://www.w3.org/2000/svg">
<path opacity="0.4" d="M205.608 483.664C152.072 483.664 103.505 473.296 68.2475 456.445C33.1375 439.663 10.5674 416.089 10.5674 389.393C10.5674 362.697 33.1375 339.123 68.2475 322.342C103.505 305.49 152.072 295.122 205.608 295.122C259.144 295.122 307.711 305.49 342.968 322.342C378.078 339.123 400.648 362.697 400.648 389.393C400.648 416.089 378.078 439.663 342.968 456.445C307.711 473.296 259.144 483.664 205.608 483.664Z" stroke="url(#paint0_linear_1465_19)" stroke-opacity="0.8" stroke-width="4.01704"/>
<path opacity="0.6" d="M205.608 455.849C152.072 455.849 103.505 445.481 68.2475 428.629C33.1375 411.848 10.5674 388.274 10.5674 361.578C10.5674 334.882 33.1375 311.308 68.2475 294.526C103.505 277.674 152.072 267.307 205.608 267.307C259.144 267.307 307.711 277.674 342.968 294.526C378.078 311.308 400.648 334.882 400.648 361.578C400.648 388.274 378.078 411.848 342.968 428.629C307.711 445.481 259.144 455.849 205.608 455.849Z" stroke="url(#paint1_linear_1465_19)" stroke-opacity="0.8" stroke-width="4.01704"/>
<path opacity="0.8" d="M205.608 429.744C152.072 429.744 103.505 419.377 68.2475 402.525C33.1375 385.743 10.5674 362.169 10.5674 335.473C10.5674 308.777 33.1375 285.203 68.2475 268.422C103.505 251.57 152.072 241.202 205.608 241.202C259.144 241.202 307.711 251.57 342.968 268.422C378.078 285.203 400.648 308.777 400.648 335.473C400.648 362.169 378.078 385.743 342.968 402.525C307.711 419.377 259.144 429.744 205.608 429.744Z" stroke="url(#paint2_linear_1465_19)" stroke-opacity="0.8" stroke-width="4.01704"/>
<ellipse rx="186.52" ry="89.15" transform="matrix(-1 0 0 1 205.615 301.28)" fill="url(#paint3_linear_1465_19)"/>
<path fill-rule="evenodd" clip-rule="evenodd" d="M270.196 243.173C265.276 240.217 259.196 236.268 258.02 235.077C256.116 233.15 254.691 211.974 253.766 186.945C253.766 186.945 261.38 172.035 259.955 160.957C259.955 160.957 270.408 158.072 269.93 139.297C269.93 139.297 271.365 117.648 266.133 118.606L259.955 120.533C259.955 120.533 259.476 96.9459 257.573 85.879C257.573 85.879 259.476 44.486 210.506 27.6381C210.506 27.6381 184.836 19.4564 160.59 39.6739C160.59 39.6739 132.537 62.7764 134.919 95.9877C134.919 95.9877 133.962 112.351 139.673 122.901C139.673 122.901 143.001 133.494 137.291 131.567C137.291 131.567 128.783 126.271 130.166 141.192C130.849 148.098 133.852 154.558 138.673 159.493C142.221 163.085 142.929 165.472 143.411 167.1C144.027 169.18 144.277 170.022 149.615 170.56C148.816 172.684 148.528 174.971 148.776 177.231C149.024 179.491 149.8 181.658 151.04 183.554V228.316C151.04 232.347 148.01 234.981 145.118 237.495C144.21 238.285 143.316 239.062 142.533 239.868C140.616 241.839 138.827 242.329 137.195 242.776C136.738 242.901 136.294 243.023 135.862 243.173H270.196Z" fill="#AFB6E5"/>
<mask id="mask0_1465_19" style="mask-type:alpha" maskUnits="userSpaceOnUse" x="19" y="212" width="374" height="179">
<ellipse rx="186.52" ry="89.15" transform="matrix(-1 0 0 1 205.615 301.278)" fill="url(#paint4_linear_1465_19)"/>
</mask>
<g mask="url(#mask0_1465_19)">
<path d="M445.775 718.778C445.775 718.778 440.543 717.809 446.253 714.924C451.964 712.039 445.296 706.742 437.746 706.311C430.196 705.881 435.843 701.026 436.8 691.391C437.757 681.756 437.268 615.354 435.843 595.578C434.418 575.802 427.335 538.306 425.857 528.671C424.379 519.036 414.925 457.447 411.118 433.86C407.311 410.273 397.294 373.703 393.04 357.813C388.787 341.924 375.441 303.427 375.441 303.427C375.441 303.427 360.234 284.167 336.935 275.985C313.635 267.804 310.786 259.622 299.854 255.294C288.922 250.967 278.458 247.113 276.554 246.628C274.651 246.144 259.922 237.004 258.019 235.077C256.115 233.15 254.69 211.974 253.765 186.945C253.765 186.945 261.379 172.035 259.954 160.957C259.954 160.957 270.408 158.072 269.929 139.297C269.929 139.297 271.365 117.648 266.133 118.606L259.954 120.533C259.954 120.533 259.476 96.9459 257.572 85.879C257.572 85.879 259.476 44.486 210.506 27.6381C210.506 27.6381 184.835 19.4564 160.589 39.6739C160.589 39.6739 132.536 62.7764 134.918 95.9877C134.918 95.9877 133.961 112.351 139.672 122.901C139.672 122.901 143 133.494 137.29 131.567C137.29 131.567 128.783 126.271 130.165 141.192C130.848 148.098 133.851 154.558 138.672 159.493C146.754 167.675 140.097 169.602 149.615 170.56C148.815 172.684 148.528 174.971 148.776 177.231C149.023 179.491 149.8 181.658 151.04 183.554V228.316C151.04 233.613 145.808 236.498 142.533 239.868C139.257 243.237 136.354 242.279 133.972 244.174C131.59 246.068 126.847 248.017 120.148 251.871C113.448 255.725 75.9311 272.562 66.8921 279.786C57.8531 287.009 45.5069 292.295 39.7964 297.592C34.0859 302.888 32.193 305.289 30.2895 309.143C15.1605 337.062 4.10998 367.054 -2.5168 398.184C-13.4487 449.201 -15.8307 468.934 -16.3411 475.189C-16.3411 475.189 -24.8483 516.097 -23.9551 554.605C-23.0618 593.113 -22.9981 602.727 -22.9981 612.835C-22.9981 622.944 -24.0615 641.719 -24.0615 646.531C-24.0615 651.343 -21.1371 675.888 -21.1371 692.252C-21.1371 708.615 -20.1906 715.828 -18.7656 723.052C-17.3407 730.275 -16.3837 732.192 -11.1517 734.119C-5.91971 736.046 -4.02685 735.561 -7.83386 739.9C-11.6409 744.238 -10.2052 743.269 -6.39815 746.154C-2.59114 749.039 0.726681 757.706 1.68375 762.033C2.64082 766.361 6.9051 771.658 5.9374 777.923C5.9374 777.923 4.03384 781.766 9.74436 781.292C9.74436 781.292 7.36237 808.723 5.9374 819.79C5.9374 819.79 4.99087 822.201 7.84081 827.971C10.6908 833.742 13.5407 845.304 15.4442 849.147C17.3477 852.99 21.6227 854.444 23.9515 855.402C26.2804 856.36 30.6085 860.225 35.8405 862.141C41.0725 864.057 58.0977 874.661 63.3722 875.135C68.6468 875.608 82.9071 875.135 82.9071 875.135C82.9071 875.135 86.2249 865.037 71.0181 863.583C71.0181 863.583 73.3151 852.043 63.3722 853.485C63.3722 853.485 58.1827 837.596 55.3328 837.122C52.4829 836.648 54.8543 823.127 53.8972 819.305C52.9401 815.483 58.1509 814.999 59.6077 810.693C61.0646 806.387 64.3612 821.76 68.6361 830.426C72.911 839.092 71.9646 843.893 79.5786 845.82C87.1926 847.747 92.8819 847.747 87.6605 834.754C82.4392 821.76 79.5786 817.906 78.0898 813.094C76.601 808.281 76.6649 798.657 74.772 792.887C72.8791 787.117 72.3899 771.227 57.1725 762.076C57.1725 762.076 49.0906 749.082 49.0906 742.828C49.0906 736.573 48.1441 730.792 49.0906 728.833C50.037 726.873 58.1296 715.354 55.2797 711.016C52.4298 706.677 51.4727 703.319 47.6656 702.834C43.8586 702.35 51.4727 689.84 51.9193 686.471C52.3659 683.101 51.4407 682.972 51.4407 674.629C51.4407 666.286 52.3871 660.978 52.3871 654.724C52.3871 648.469 54.2906 641.73 54.7692 638.36C55.2477 634.991 55.7157 634.054 57.6192 646.057C59.5227 658.061 60.3946 661.936 63.2871 671.561C66.1796 681.185 70.4545 689.862 74.7401 692.263C79.0256 694.663 82.3434 692.736 81.3864 699.475C80.4293 706.214 72.358 747.123 72.358 750.977C72.358 754.831 75.208 754.831 79.9614 757.716C84.7149 760.601 80.4399 763.971 83.7684 770.226C87.0969 776.48 98.5073 810.661 100.411 821.243C102.314 831.825 103.261 832.321 105.164 840.976C107.068 849.631 104.686 836.67 110.396 856.866C116.107 877.062 115.15 873.703 116.096 879.473C117.043 885.243 117.043 889.582 117.521 893.91C118 898.237 122.275 904.018 124.178 914.601C126.082 925.183 126.082 930.49 126.56 938.188C127.039 945.885 125.124 952.183 128.453 961.29C131.781 970.398 132.707 968.514 133.206 975.727C133.706 982.94 130.835 980.033 131.781 987.762C132.728 995.492 133.206 998.345 137.97 1001.24C142.735 1004.14 146.478 1013.27 146.999 1020C147.52 1026.74 147.477 1027.23 145.095 1033.48C142.713 1039.74 141.288 1042.62 142.724 1048.89C144.16 1055.15 146.052 1051.77 144.149 1058.51C142.245 1065.25 143.192 1102.31 146.52 1116.74C146.52 1116.74 143.67 1119.64 141.288 1120.11C138.906 1120.59 126.082 1124.42 125.124 1137.44C125.124 1137.44 119.903 1156.21 127.507 1184.61C127.507 1184.61 140.342 1210.6 129.889 1242.85C129.889 1242.85 117.043 1278.95 146.52 1317.44C146.52 1317.44 150.774 1333.81 172.191 1327.07C172.191 1327.07 186.462 1311.19 186.462 1299.15C186.462 1299.15 188.355 1288.09 190.716 1295.31C193.077 1302.53 196.426 1303.49 193.566 1309.3C190.705 1315.12 194.044 1316.04 187.387 1326.15C180.73 1336.26 175.977 1340.59 175.498 1346.37C175.02 1352.15 171.702 1361.29 171.702 1361.29C169.633 1365.68 168.639 1370.51 168.804 1375.36C168.968 1380.22 170.287 1384.97 172.648 1389.2C172.648 1389.2 184.537 1399.79 210.687 1399.79C210.687 1399.79 244.439 1407.48 246.343 1380.05C246.343 1380.05 246.811 1358.88 246.343 1352.62C245.875 1346.37 243.014 1342.52 246.343 1335.78C249.671 1329.04 251.575 1328.55 249.671 1324.71C247.768 1320.87 241.164 1321.34 244.439 1316.53C247.715 1311.72 253.085 1311.72 250.426 1306.42C247.768 1301.12 243.961 1300.64 247.768 1295.83C251.575 1291.01 245.96 1287.64 251.139 1282.36C256.318 1277.07 259.178 1273.75 259.646 1271.28C260.114 1268.82 252.989 1253.47 249.661 1249.15C246.332 1244.82 242.047 1242.89 248.236 1233.26C254.425 1223.62 252.032 1224.12 250.607 1217.86C249.182 1211.61 248.703 1211.12 250.607 1204.38C252.51 1197.65 253.457 1194.76 252.032 1186.08C250.607 1177.41 247.279 1164.91 246.8 1160.1C246.322 1155.28 286.263 1105.19 301.949 1089.83C317.634 1074.47 323.823 1060.95 329.523 1054.21C335.223 1047.47 342.369 1041.21 349.015 1031.11C355.661 1021.02 359.958 1015.22 362.329 1010.9C364.7 1006.57 368.986 985.383 369.943 978.601C370.9 971.819 372.793 958.394 373.271 955.994C373.75 953.593 380.396 942.515 373.739 936.745C367.082 930.975 372.315 925.678 372.315 914.138C372.315 902.597 371.836 881.841 372.793 876.114C373.75 870.387 383.246 872.745 389.903 869.375C396.56 866.006 399.889 863.12 405.599 860.235C411.31 857.35 424.134 861.678 428.42 848.684C432.706 835.69 438.873 823.654 438.873 816.915C438.873 810.176 443.627 806.322 440.298 796.213C436.97 786.105 437.448 776.965 436.502 773.606C435.556 770.247 434.12 752.915 445.53 737.004C445.775 737.068 460.992 726.475 445.775 718.778ZM83.9812 537.822C84.1389 543.341 83.4975 548.854 82.0776 554.185C80.1741 562.367 78.7491 562.367 78.7491 569.106C78.7491 575.845 81.599 572.476 72.5706 585.954C66.7646 594.746 61.5253 603.909 56.8853 613.384C58.3103 608.572 55.4604 591.724 56.8853 582.585C58.3103 573.445 55.4604 572.896 56.8853 566.221C58.3103 559.547 61.1391 560.44 65.9138 554.379C70.6885 548.318 66.8602 545.562 66.3923 532.568C65.9244 519.575 66.3923 525.345 66.3923 515.72C66.3923 506.096 66.3923 507.539 71.167 498.399C75.9417 489.259 74.4742 503.211 76.3777 505.612C78.2812 508.012 80.6314 514.278 83.9812 522.46C87.3309 530.641 83.9812 532.515 83.9812 537.822ZM259.891 979.204C259.412 983.058 259.891 983.51 259.891 989.313C259.891 995.115 258.455 993.167 256.562 998.937C254.669 1004.71 252.308 1007.55 244.195 1013.86C236.081 1020.17 238.495 1020.11 235.411 1017.23C232.327 1014.34 237.538 1010.97 239.984 1002.31C242.429 993.64 237.538 990.755 235.73 977.277C233.922 963.799 239.409 967.653 239.984 959.471C240.558 951.289 236.113 931.072 236.113 931.072C233.741 910.865 244.195 920.005 244.195 920.005C244.195 920.005 246.098 924.817 246.098 927.228C246.098 929.64 246.098 932.999 248.81 940.222C251.522 947.446 248.48 947.92 246.577 956.101C244.673 964.283 246.098 965.726 248.81 968.514C251.522 971.302 252.755 967.168 259.891 968.514C267.026 969.859 260.358 975.307 259.891 979.204ZM370.656 813.589C368.752 810.219 369.231 804.449 369.709 795.783C370.188 787.117 369.231 785.674 363.477 775.081C357.724 764.488 359.639 757.759 359.639 757.759C365.253 756.317 363.052 751.978 363.052 751.978C354.545 732.73 356.395 695.191 356.395 695.191C360.649 684.598 357.82 676.89 356.874 669.687C355.927 662.485 354.97 652.355 351.163 641.288C347.356 630.221 348.792 622.513 346.91 616.259C345.027 610.004 344.528 593.156 343.581 580.647C342.635 568.137 343.581 564.757 343.581 564.757C344.829 566.767 345.941 568.86 346.91 571.022C347.856 573.423 346.91 579.204 352.609 600.38C358.309 621.555 372.102 666.318 372.963 671.604C373.825 676.89 381.619 683.639 381.141 690.379C380.662 697.118 379.716 696.149 376.887 695.191C374.058 694.233 376.887 703.857 378.323 707.7C379.758 711.543 379.748 712.512 379.748 718.293C379.748 724.074 389.733 732.288 389.733 733.699C389.733 735.109 388.776 741.88 388.297 746.208C387.819 750.536 384.501 757.275 383.076 759.686C381.651 762.098 377.844 774.123 375.941 780.862C374.037 787.601 375.462 800.595 375.462 809.261C375.462 817.927 372.559 816.958 370.656 813.589ZM388.244 858.804C388.244 858.804 378.27 861.215 372.08 858.804V847.758C374.747 848.309 377.496 848.309 380.162 847.758C380.957 849.188 382.142 850.354 383.576 851.118C385.01 851.882 386.631 852.211 388.244 852.064C388.244 852.064 395.38 856.909 388.202 858.825L388.244 858.804ZM399.655 832.794C397.762 839.049 400.612 843.861 396.805 844.83C392.998 845.799 388.723 844.346 387.776 841.46C386.83 838.575 386.819 834.721 387.776 829.909C388.733 825.097 393.476 808.249 392.53 803.921C394.96 805.213 396.996 807.15 398.42 809.524C399.844 811.899 400.602 814.622 400.612 817.4C400.612 827.067 401.558 826.583 399.655 832.794Z" fill="#AFB6E5"/>
</g>
<path fill-rule="evenodd" clip-rule="evenodd" d="M392.514 0.480469H19.3249V299.215C19.2923 299.901 19.2759 300.589 19.2759 301.278C19.2759 350.515 102.784 390.428 205.796 390.428C308.36 390.428 391.589 350.861 392.312 301.921H392.514V0.480469Z" fill="url(#paint5_linear_1465_19)"/>
<path d="M205.615 396.116C153.452 396.116 105.949 386.022 71.2736 369.449C37.0157 353.075 13.4089 329.347 13.4089 301.28C13.4089 273.212 37.0157 249.485 71.2736 233.111C105.949 216.537 153.452 206.444 205.615 206.444C257.778 206.444 305.282 216.537 339.957 233.111C374.215 249.485 397.822 273.212 397.822 301.28C397.822 329.347 374.215 353.075 339.957 369.449C305.282 386.022 257.778 396.116 205.615 396.116Z" stroke="url(#paint6_linear_1465_19)" stroke-width="11.3725"/>
<g filter="url(#filter0_f_1465_19)">
<path d="M205.615 396.116C153.452 396.116 105.949 386.022 71.2736 369.449C37.0157 353.075 13.4089 329.347 13.4089 301.28C13.4089 273.212 37.0157 249.485 71.2736 233.111C105.949 216.537 153.452 206.444 205.615 206.444C257.778 206.444 305.282 216.537 339.957 233.111C374.215 249.485 397.822 273.212 397.822 301.28C397.822 329.347 374.215 353.075 339.957 369.449C305.282 386.022 257.778 396.116 205.615 396.116Z" stroke="url(#paint7_linear_1465_19)" stroke-width="11.3725"/>
</g>
<defs>
<filter id="filter0_f_1465_19" x="0.14102" y="193.176" width="410.948" height="216.208" filterUnits="userSpaceOnUse" color-interpolation-filters="sRGB">
<feFlood flood-opacity="0" result="BackgroundImageFix"/>
<feBlend mode="normal" in="SourceGraphic" in2="BackgroundImageFix" result="shape"/>
<feGaussianBlur stdDeviation="3.79082" result="effect1_foregroundBlur_1465_19"/>
</filter>
<linearGradient id="paint0_linear_1465_19" x1="187.386" y1="406.895" x2="185.888" y2="481.569" gradientUnits="userSpaceOnUse">
<stop stop-color="#5092F3" stop-opacity="0"/>
<stop offset="0.560417" stop-color="#5092F3" stop-opacity="0.5"/>
<stop offset="1" stop-color="#9E00F6"/>
</linearGradient>
<linearGradient id="paint1_linear_1465_19" x1="206.421" y1="373.704" x2="204.647" y2="458.765" gradientUnits="userSpaceOnUse">
<stop stop-color="#5092F3" stop-opacity="0"/>
<stop offset="0.560417" stop-color="#5092F3" stop-opacity="0.5"/>
<stop offset="1" stop-color="#9E00F6"/>
</linearGradient>
<linearGradient id="paint2_linear_1465_19" x1="219.484" y1="318.852" x2="216.989" y2="428.453" gradientUnits="userSpaceOnUse">
<stop offset="0.0298552" stop-color="#5092F3" stop-opacity="0"/>
<stop offset="0.560417" stop-color="#5092F3" stop-opacity="0.5"/>
<stop offset="1" stop-color="#9E00F6"/>
</linearGradient>
<linearGradient id="paint3_linear_1465_19" x1="186.52" y1="-2.61414e-06" x2="144.595" y2="186.88" gradientUnits="userSpaceOnUse">
<stop stop-color="#4D40BC"/>
<stop offset="1"/>
</linearGradient>
<linearGradient id="paint4_linear_1465_19" x1="186.52" y1="-2.61414e-06" x2="144.595" y2="186.88" gradientUnits="userSpaceOnUse">
<stop stop-color="#4D40BC"/>
<stop offset="1"/>
</linearGradient>
<linearGradient id="paint5_linear_1465_19" x1="205.919" y1="0.480469" x2="205.919" y2="404.491" gradientUnits="userSpaceOnUse">
<stop stop-color="#6454F0" stop-opacity="0"/>
<stop offset="1" stop-color="#6454F0" stop-opacity="0.4"/>
</linearGradient>
<linearGradient id="paint6_linear_1465_19" x1="205.615" y1="212.13" x2="205.615" y2="390.43" gradientUnits="userSpaceOnUse">
<stop stop-color="#24E8DE" stop-opacity="0"/>
<stop offset="0.560417" stop-color="#5092F3" stop-opacity="0.5"/>
<stop offset="1" stop-color="#9E00F6"/>
</linearGradient>
<linearGradient id="paint7_linear_1465_19" x1="205.615" y1="212.13" x2="205.615" y2="390.43" gradientUnits="userSpaceOnUse">
<stop stop-color="#24E8DE" stop-opacity="0"/>
<stop offset="1" stop-color="#9E00F6"/>
</linearGradient>
</defs>
</svg>
