<svg width="406" height="465" viewBox="0 0 406 465" fill="none" xmlns="http://www.w3.org/2000/svg">
<path opacity="0.4" d="M202.837 462.019C256.373 462.019 304.939 451.652 340.197 434.8C375.307 418.019 397.877 394.445 397.877 367.749C397.877 341.053 375.307 317.479 340.197 300.697C304.939 283.845 256.373 273.478 202.837 273.478C149.3 273.478 100.734 283.845 65.4763 300.697C30.3662 317.479 7.79617 341.053 7.79617 367.749C7.79617 394.445 30.3662 418.019 65.4763 434.8C100.734 451.652 149.3 462.019 202.837 462.019Z" stroke="url(#paint0_linear_1465_35)" stroke-opacity="0.8" stroke-width="4.01704"/>
<path opacity="0.6" d="M209.412 433.975C262.818 430.24 310.543 416.51 344.539 397.24C378.393 378.05 399.264 352.959 397.402 326.328C395.539 299.697 371.38 277.755 335.185 263.464C298.838 249.112 249.666 242.158 196.26 245.892C142.855 249.627 95.1295 263.357 61.1334 282.627C27.2795 301.817 6.40892 326.908 8.27113 353.539C10.1333 380.17 34.2929 402.112 70.488 416.404C106.835 430.755 156.007 437.709 209.412 433.975Z" stroke="url(#paint1_linear_1465_35)" stroke-opacity="0.8" stroke-width="4.01704"/>
<path opacity="0.8" d="M214.326 407.397C267.463 400.873 314.404 384.664 347.345 363.641C380.148 342.706 399.677 316.557 396.424 290.06C393.17 263.563 367.895 242.915 331.002 230.538C293.954 218.108 244.485 213.737 191.348 220.261C138.211 226.786 91.27 242.995 58.329 264.018C25.5258 284.953 5.99698 311.102 9.2504 337.599C12.5038 364.096 37.7786 384.743 74.6721 397.121C111.72 409.55 161.188 413.922 214.326 407.397Z" stroke="url(#paint2_linear_1465_35)" stroke-opacity="0.8" stroke-width="4.01704"/>
<ellipse cx="202.831" cy="279.635" rx="186.52" ry="89.15" transform="rotate(-12.3444 202.831 279.635)" fill="url(#paint3_linear_1465_35)"/>
<path fill-rule="evenodd" clip-rule="evenodd" d="M235.091 233.551H129.901L124.701 210.646C124.701 210.646 118.16 201.772 116.293 198.041C115.528 196.512 114.528 194.825 113.55 193.174C112.142 190.797 110.777 188.493 110.216 186.839C109.668 185.223 108.819 183.3 108.11 181.692C107.588 180.509 107.142 179.497 106.945 178.903C106.869 178.674 106.417 178.269 105.712 177.638C102.113 174.414 91.9203 165.286 91.5324 143.43C91.5324 143.43 95.7423 131.29 92.9357 128.961C90.129 126.632 89.2013 117.283 91.5324 113.09C92.6429 111.092 91.6373 108.032 90.5818 104.821C89.4216 101.291 88.2012 97.5773 89.6648 94.89C92.4598 89.7579 95.7305 83.2125 97.6093 79.0188C99.4881 74.8251 101.808 69.6814 101.808 69.6814C101.808 69.6814 100.416 58.0155 108.824 53.3468C113.622 50.6828 114.315 47.8642 115.067 44.8092C115.632 42.5102 116.23 40.0773 118.636 37.4756C119.51 36.5297 120.35 35.5951 121.16 34.6931C125.539 29.8173 129.064 25.8936 132.646 26.2846C134.657 26.5042 135.609 27.3531 136.597 28.2349C137.695 29.2144 138.839 30.2345 141.53 30.4783C142.865 30.5993 144.933 29.8942 147.527 29.01C154.873 26.5059 166.434 22.565 177.483 31.8801C177.483 31.8801 196.178 28.6132 201.779 37.0122C201.779 37.0122 221.403 50.5548 223.27 61.2824C223.27 61.2824 238.208 68.7778 235.888 90.2445C235.888 90.2445 236.364 97.7051 236.828 101.91C237.292 106.116 235.888 119.183 235.888 119.183C236.374 124.052 235.897 128.968 234.485 133.653C234.485 133.653 240.098 139.248 235.888 154.656C235.888 154.656 231.249 166.322 231.249 175.659C231.249 181.689 232.217 182.265 232.277 182.924C232.311 183.285 232.071 183.671 231.249 184.997L228.93 188.727C228.93 188.727 227.979 191.994 225.659 192.457L223.34 192.932C220.609 195.686 218.962 199.329 218.701 203.197C217.91 209.096 218.071 215.084 219.176 220.933C219.176 220.933 227.585 217.712 230.855 224.663C230.855 224.663 232.438 229.214 235.091 233.551Z" fill="#AFB6E5"/>
<mask id="mask0_1465_35" style="mask-type:alpha" maskUnits="userSpaceOnUse" x="19" y="183" width="368" height="193">
<ellipse cx="202.832" cy="279.635" rx="186.52" ry="89.15" transform="rotate(-12.3444 202.832 279.635)" fill="url(#paint4_linear_1465_35)"/>
</mask>
<g mask="url(#mask0_1465_35)">
<path d="M453.228 612.06C456.975 581.256 453.228 532.252 453.228 532.252C453.228 532.252 444.82 499.571 442.014 494.903C439.207 490.234 433.605 471.107 430.335 457.565C427.064 444.022 406.977 401.089 404.171 395.493C401.364 389.898 387.818 353.023 387.818 353.023C382.216 336.214 368.194 317.551 368.194 317.551C368.194 317.551 367.731 309.151 367.255 307.275C366.78 305.398 366.328 296.547 363.521 289.075C360.714 281.603 357.907 282.124 350.438 272.277C342.969 262.43 320.528 262.94 320.528 262.94C314.987 261.349 309.529 259.482 304.175 257.344C297.634 254.541 293.436 253.139 278.475 249.872C263.514 246.605 240.203 239.608 240.203 239.608C234.589 235.402 230.855 224.663 230.855 224.663C227.584 217.712 219.176 220.933 219.176 220.933C218.07 215.084 217.91 209.096 218.701 203.197C218.962 199.329 220.609 195.686 223.34 192.932L225.659 192.457C227.979 191.994 228.929 188.727 228.929 188.727L231.249 184.997C233.569 181.255 231.249 184.997 231.249 175.659C231.249 166.322 235.888 154.656 235.888 154.656C240.098 139.248 234.485 133.653 234.485 133.653C235.897 128.968 236.373 124.052 235.888 119.183C235.888 119.183 237.291 106.116 236.828 101.91C236.364 97.7051 235.888 90.2445 235.888 90.2445C238.208 68.7778 223.27 61.2824 223.27 61.2824C221.403 50.5548 201.779 37.0122 201.779 37.0122C196.177 28.6132 177.482 31.8801 177.482 31.8801C162.533 19.2758 146.644 30.9417 141.53 30.4783C136.415 30.0149 136.89 26.748 132.646 26.2846C128.401 25.8212 124.237 31.4167 118.635 37.4756C113.034 43.5344 117.232 48.6781 108.824 53.3468C100.416 58.0155 101.807 69.6814 101.807 69.6814C101.807 69.6814 99.4878 74.8251 97.609 79.0188C95.7301 83.2125 92.4595 89.7579 89.6644 94.89C86.8694 100.022 93.8632 108.896 91.5321 113.09C89.2009 117.283 90.1287 126.632 92.9353 128.961C95.742 131.29 91.5321 143.43 91.5321 143.43C91.996 169.566 106.481 177.501 106.945 178.903C107.409 180.305 109.265 184.035 110.216 186.839C111.167 189.642 114.425 194.311 116.293 198.041C118.16 201.772 124.701 210.646 124.701 210.646L132.646 245.643C132.646 245.643 128.006 253.116 124.237 260.113C120.468 267.11 114.889 271.315 106.945 276.922C99.0005 282.53 74.7154 300.718 65.3676 305.885C56.0199 311.051 55.5556 318.477 52.7489 324.548C49.9423 330.618 50.8819 348.355 50.8819 356.29C50.8819 364.226 48.5625 386.156 46.672 392.203C44.7816 398.25 41.5343 425.336 38.2637 434.21C34.9932 443.084 33.6246 452.409 29.8554 463.612C26.0862 474.815 13.0269 532.229 13.0269 532.229C5.55796 558.364 -0.983082 603.163 -5.19304 616.242C-9.403 629.321 -4.72918 633.504 -3.78976 641.439C-2.85035 649.375 -1.92234 648.39 1.34821 661.979C4.61876 675.568 6.96167 675.985 10.2322 683.446C12.5428 688.944 13.9602 694.775 14.4307 700.719C14.4307 702.121 15.3696 725.916 15.3696 732.218C15.3696 738.52 19.1043 745.529 19.1043 751.125C19.1043 756.72 23.314 759.998 25.1812 758.597C28.104 756.028 30.6256 753.037 32.6619 749.723C34.9815 745.992 36.8601 744.591 40.5946 743.652C47.4597 741.879 54.0615 739.211 60.2297 735.717C67.1883 731.523 67.1883 736.192 67.1883 736.192V743.143C67.1883 745.946 65.3209 755.283 60.647 779.055C55.9732 802.828 53.1669 831.338 53.1669 831.338C50.8473 871.004 59.7075 915.351 59.7075 924.677C59.7075 934.003 66.249 955.956 66.7245 972.291C67.2 988.625 69.9948 1033.9 69.9948 1037.63C69.9948 1041.36 74.1933 1043.24 76.5361 1045.56C78.8788 1047.89 80.2704 1049.77 78.4031 1053.96C76.5359 1058.16 79.3309 1072.64 81.2097 1077.31C83.0885 1081.98 88.6789 1088.05 90.5462 1094.1C92.4134 1100.16 91.4856 1104.84 89.1429 1110.91C86.8001 1116.98 84.0051 1151.46 82.1843 1159.92C80.3634 1168.38 82.6482 1178.12 82.1843 1181.39C81.7204 1184.65 76.5826 1189.32 75.2257 1192.59C73.8687 1195.85 71.0153 1232.27 71.0153 1236C71.0153 1239.73 73.822 1253.73 71.9548 1265.87C70.0875 1278.01 67.3159 1280.33 56.5301 1291.53C45.7442 1302.74 52.7954 1309.74 53.7348 1313.48C54.6743 1317.21 61.6678 1315.79 60.2761 1318.11C58.8844 1320.43 45.3149 1330.24 41.5805 1333.04C37.846 1335.85 42.9838 1352.18 42.9838 1352.18C34.1 1360.12 40.1773 1375.51 39.7134 1379.25C39.2495 1383 35.5035 1393.72 31.3051 1400.72C27.1068 1407.72 23.3606 1409.58 21.0178 1411.46C18.6751 1413.34 17.2834 1416.09 16.3788 1419.86C15.4741 1423.62 17.3182 1424.05 14.0592 1427.32C10.8003 1430.59 3.30811 1435.73 -3.6969 1441.79C-10.7019 1447.85 -9.29842 1450.2 -13.9723 1452.99C-18.6461 1455.78 -33.1317 1457.2 -33.1317 1457.2C-46.2139 1459.06 -50.8878 1470.73 -50.8878 1470.73C-59.7716 1474.47 -59.7713 1481.93 -58.3679 1483.8C-56.9646 1485.66 -43.4189 1494.53 -34.0711 1498.74C-24.7234 1502.95 0.513184 1508.54 21.0643 1508.54C33.3458 1508.56 45.5279 1506.34 57.0171 1502.01C71.9665 1492.67 84.1091 1477.26 84.1091 1477.26L89.2471 1481.47H95.3245C115.423 1475.86 122.892 1464.19 122.892 1464.19C122.892 1464.19 120.573 1448.32 120.097 1446.46C119.622 1444.59 120.561 1440.86 121.488 1435.26C122.416 1429.65 121.489 1426.86 120.097 1421.72C118.705 1416.59 117.29 1410.06 117.777 1403.99C118.265 1397.92 114.043 1391.38 114.043 1391.38C116.362 1389.07 125.258 1376.45 125.258 1373.18C125.258 1369.92 121.048 1360.58 118.717 1358.71C116.386 1356.85 118.717 1356.4 124.783 1347.05C130.848 1337.7 125.722 1342.84 132.263 1343.31C138.804 1343.77 135.997 1341.92 137.401 1338.67C138.804 1335.43 140.207 1333.07 143.942 1326.99C147.676 1320.92 149.555 1304.13 149.555 1293.86C149.555 1283.6 146.748 1287.79 142.074 1278.45C137.4 1269.12 143.942 1268.65 145.809 1261.66C147.676 1254.66 153.289 1249.99 157.024 1234.12C159.688 1223.68 163.72 1213.63 169.016 1204.24C169.016 1204.24 188.338 1230.39 190.669 1235.98C193 1241.58 190.669 1242.05 190.205 1248.13C189.741 1254.2 193.475 1259.79 196.746 1264.46C200.016 1269.13 212.159 1266.78 212.635 1271.41C213.076 1274.57 214.192 1277.59 215.905 1280.27C215.905 1280.27 217.308 1288.68 217.772 1292.41C218.216 1295.98 218.372 1299.57 218.237 1303.15C218.237 1309.21 218.701 1309.21 218.701 1309.21L222.91 1317.62L221.507 1319.94C220.104 1322.26 216.868 1341.41 214.038 1347.48C211.208 1353.55 206.094 1361.01 191.133 1372.21C182.285 1378.75 176.004 1388.18 173.377 1398.86C171.827 1399.57 170.567 1400.79 169.804 1402.32C169.041 1403.85 168.82 1405.59 169.178 1407.25C169.178 1407.25 175.72 1408.66 182.261 1409.57C188.802 1410.49 194.879 1410.97 225.717 1409.57C256.555 1408.17 256.555 1396.98 260.29 1390.45C264.024 1383.91 274.775 1373.17 274.775 1373.17L288.321 1375.98C311.227 1370.83 318.591 1354.03 318.591 1354.03L314.497 1341.9C314.497 1341.9 313.952 1336.85 313.952 1329.9C313.952 1322.95 310.218 1321.97 306.993 1315.9C303.825 1309.59 301.168 1303.03 299.049 1296.3C297.182 1290.7 295.779 1278.56 295.779 1274.83C295.779 1271.1 295.314 1269.23 289.701 1258.49C284.088 1247.75 284.564 1252.42 280.365 1248.23C276.167 1244.04 274.752 1238.89 270.078 1230.96C265.404 1223.02 265.88 1222.08 264.001 1206.69C262.122 1191.29 249.052 1177.28 240.179 1163.74C231.307 1150.2 232.699 1154.88 228.025 1141.34C223.351 1127.79 226.158 1133.88 222.423 1127.34C218.689 1120.81 204.667 1093.75 203.264 1092.33C201.861 1090.92 199.993 1085.38 198.625 1081.59C197.256 1077.81 195.818 1076 192.547 1071.79C189.277 1067.59 190.228 1063.86 188.349 1060.59C186.471 1057.32 184.603 1054.99 185.079 1050.33C185.554 1045.66 187.398 1045.69 186.007 1042.39C184.615 1039.09 182.272 1039.59 182.272 1036.79C182.272 1034 186.006 1032.16 191.144 1020.92C196.282 1009.69 199.564 995.715 201.431 991.962C203.299 988.208 207.509 981.697 209.84 973.287C212.171 964.876 214.978 965.826 216.798 961.157C217.902 958.417 218.839 955.612 219.605 952.758C219.605 952.758 223.815 942.958 223.34 939.691C222.864 936.424 226.61 930.817 228.489 926.148C230.368 921.479 250.444 875.777 250.444 875.777C250.444 875.777 262.122 863.648 267.26 857.577C272.398 851.507 288.762 826.298 288.287 824.433C287.811 822.568 287.823 806.234 288.287 802.028C288.75 797.823 303.711 770.749 304.651 766.115C305.59 761.481 311.192 743.247 311.192 743.247C329.876 740.443 356.516 737.651 356.516 737.651C364.46 735.334 363.057 741.382 363.057 741.382L360.737 749.781C360.737 749.781 363.544 752.098 363.544 753.511C363.544 754.924 360.737 777.318 360.737 780.585C360.658 784.325 360.817 788.067 361.213 791.787C361.677 795.054 362.605 798.321 363.961 799.723C365.318 801.125 361.642 807.658 363.961 809.06C366.281 810.462 372.416 799.723 372.416 801.125C372.342 804.563 372.032 807.993 371.488 811.389C370.938 815.845 369.465 820.137 367.162 823.993C358.162 833.33 371.024 834.257 371.024 834.257C377.983 833.794 381.764 824.456 381.764 824.456C381.764 824.456 383.631 825.858 389.94 824.456C391.999 824.039 393.951 823.207 395.677 822.013C397.404 820.818 398.869 819.284 399.984 817.506C401.387 815.64 408.404 818.444 410.735 817.506C413.066 816.567 416.348 812.872 418.679 810.972C421.01 809.072 426.623 807.705 428.491 805.84C430.358 803.974 431.761 796.502 431.761 796.502C432.681 791.5 434.24 786.637 436.401 782.033C437.34 773.634 436.401 769.429 436.401 769.429C436.799 763.474 437.574 757.55 438.72 751.692C440.599 742.366 436.853 739.563 438.72 728.36C440.587 717.158 442.93 712.489 444.333 702.688C445.736 692.888 442.93 693.351 444.333 681.222C445.736 669.092 453.228 612.06 453.228 612.06ZM386.414 655.005C385.719 660.137 383.851 666.671 384.095 670.17C384.338 673.668 384.559 687.443 385.255 692.1C385.951 696.757 386.658 697.012 385.022 699.572C383.387 702.132 378.945 705.642 377.31 708.203C375.675 710.763 372.88 712.64 372.173 716.382C371.726 719.829 370.825 723.202 369.494 726.414C368.472 728.509 367.173 730.457 365.631 732.206C365.631 732.206 366.107 717.98 366.107 714.47C366.107 710.96 364.703 706.534 362.836 705.608C360.969 704.681 360.03 689.968 359.566 683.434C359.102 676.9 358.858 666.161 358.406 662.431C357.954 658.701 354.927 633.967 354.66 628.36C354.393 622.753 353.732 608.063 353.025 603.395C352.317 598.726 344.617 539.446 344.385 531.569C344.153 523.691 347.632 481.638 349.024 478.591C349.024 478.591 351.598 470.899 352.99 476.958C354.382 483.017 355.796 503.336 367.475 514.539C379.154 525.741 379.63 525.267 381.961 528.765C384.292 532.264 387.11 533.909 384.281 535.716C381.451 537.523 379.375 538.983 379.375 542.482C379.398 547.783 380.511 553.024 382.645 557.878C385.208 563.253 386.844 565.582 387.087 567.922C387.331 570.262 389.407 569.555 387.087 572.116C384.768 574.676 381.474 575.591 381.474 580.051C381.474 584.511 382.181 593.351 383.573 598.019C384.964 602.688 386.611 601.993 385.892 604.785C385.173 607.577 384.489 606.187 383.318 610.855C382.147 615.524 383.55 622.996 386.357 629.762C389.163 636.527 389.836 635.832 389.836 639.562C389.836 643.293 387.122 649.873 386.414 655.005Z" fill="#AFB6E5"/>
</g>
<path fill-rule="evenodd" clip-rule="evenodd" d="M19.6258 0H386.074L386.074 245.101L385.988 245.117C390.499 292.056 319.099 345.697 222.033 366.94C121.402 388.963 31.2917 367.825 20.7656 319.727C20.3441 317.801 20.0566 315.861 19.8995 313.909L19.6267 313.96L19.6258 0Z" fill="url(#paint5_linear_1465_35)"/>
<path d="M223.105 372.279C274.062 361.127 318.31 341.111 348.64 317.507C378.605 294.188 396.594 265.962 390.593 238.544C384.593 211.125 356.459 192.993 319.493 184.322C282.076 175.544 233.513 175.84 182.556 186.991C131.599 198.143 87.3513 218.159 57.021 241.763C27.0557 265.082 9.06737 293.308 15.0678 320.726C21.0683 348.145 49.2019 366.277 86.1683 374.949C123.585 383.726 172.148 383.431 223.105 372.279Z" stroke="url(#paint6_linear_1465_35)" stroke-width="11.3725"/>
<g filter="url(#filter0_f_1465_35)">
<path d="M223.105 372.279C274.062 361.127 318.31 341.111 348.64 317.507C378.605 294.188 396.594 265.962 390.593 238.544C384.593 211.125 356.459 192.993 319.493 184.322C282.076 175.544 233.513 175.84 182.556 186.991C131.599 198.143 87.3513 218.159 57.021 241.763C27.0557 265.082 9.06737 293.308 15.0678 320.726C21.0683 348.145 49.2019 366.277 86.1683 374.949C123.585 383.726 172.148 383.431 223.105 372.279Z" stroke="url(#paint7_linear_1465_35)" stroke-width="11.3725"/>
</g>
<defs>
<filter id="filter0_f_1465_35" x="0.639067" y="164.873" width="404.383" height="229.523" filterUnits="userSpaceOnUse" color-interpolation-filters="sRGB">
<feFlood flood-opacity="0" result="BackgroundImageFix"/>
<feBlend mode="normal" in="SourceGraphic" in2="BackgroundImageFix" result="shape"/>
<feGaussianBlur stdDeviation="3.79082" result="effect1_foregroundBlur_1465_35"/>
</filter>
<linearGradient id="paint0_linear_1465_35" x1="221.058" y1="385.251" x2="222.556" y2="459.925" gradientUnits="userSpaceOnUse">
<stop stop-color="#5092F3" stop-opacity="0"/>
<stop offset="0.560417" stop-color="#5092F3" stop-opacity="0.5"/>
<stop offset="1" stop-color="#9E00F6"/>
</linearGradient>
<linearGradient id="paint1_linear_1465_35" x1="202.871" y1="352.087" x2="210.574" y2="436.817" gradientUnits="userSpaceOnUse">
<stop stop-color="#5092F3" stop-opacity="0"/>
<stop offset="0.560417" stop-color="#5092F3" stop-opacity="0.5"/>
<stop offset="1" stop-color="#9E00F6"/>
</linearGradient>
<linearGradient id="paint2_linear_1465_35" x1="187.038" y1="299.023" x2="202.872" y2="407.503" gradientUnits="userSpaceOnUse">
<stop offset="0.0298552" stop-color="#5092F3" stop-opacity="0"/>
<stop offset="0.560417" stop-color="#5092F3" stop-opacity="0.5"/>
<stop offset="1" stop-color="#9E00F6"/>
</linearGradient>
<linearGradient id="paint3_linear_1465_35" x1="202.831" y1="190.485" x2="160.905" y2="377.365" gradientUnits="userSpaceOnUse">
<stop stop-color="#4D40BC"/>
<stop offset="1"/>
</linearGradient>
<linearGradient id="paint4_linear_1465_35" x1="202.832" y1="190.485" x2="160.906" y2="377.365" gradientUnits="userSpaceOnUse">
<stop stop-color="#4D40BC"/>
<stop offset="1"/>
</linearGradient>
<linearGradient id="paint5_linear_1465_35" x1="202.85" y1="0" x2="202.85" y2="382.07" gradientUnits="userSpaceOnUse">
<stop stop-color="#6454F0" stop-opacity="0"/>
<stop offset="1" stop-color="#6454F0" stop-opacity="0.4"/>
</linearGradient>
<linearGradient id="paint6_linear_1465_35" x1="183.771" y1="192.546" x2="221.89" y2="366.724" gradientUnits="userSpaceOnUse">
<stop stop-color="#24E8DE" stop-opacity="0"/>
<stop offset="0.560417" stop-color="#5092F3" stop-opacity="0.5"/>
<stop offset="1" stop-color="#9E00F6"/>
</linearGradient>
<linearGradient id="paint7_linear_1465_35" x1="183.771" y1="192.546" x2="221.89" y2="366.724" gradientUnits="userSpaceOnUse">
<stop stop-color="#24E8DE" stop-opacity="0"/>
<stop offset="1" stop-color="#9E00F6"/>
</linearGradient>
</defs>
</svg>
