<svg width="406" height="452" viewBox="0 0 406 452" fill="none" xmlns="http://www.w3.org/2000/svg">
<path opacity="0.4" d="M202.837 449.717C149.301 449.717 100.734 439.349 65.4765 422.497C30.3665 405.716 7.79642 382.142 7.79642 355.446C7.79642 328.75 30.3665 305.176 65.4765 288.394C100.734 271.543 149.301 261.175 202.837 261.175C256.373 261.175 304.94 271.543 340.197 288.394C375.307 305.176 397.877 328.75 397.877 355.446C397.877 382.142 375.307 405.716 340.197 422.497C304.94 439.349 256.373 449.717 202.837 449.717Z" stroke="url(#paint0_linear_1465_2)" stroke-opacity="0.8" stroke-width="4.01704"/>
<path opacity="0.6" d="M196.261 421.671C142.855 417.937 95.13 404.207 61.134 384.936C27.28 365.747 6.40944 340.656 8.27166 314.025C10.1339 287.394 34.2934 265.451 70.4885 251.16C106.836 236.809 156.007 229.854 209.413 233.589C262.819 237.323 310.544 251.053 344.54 270.324C378.394 289.513 399.264 314.604 397.402 341.235C395.54 367.866 371.38 389.809 335.185 404.1C298.838 418.451 249.667 425.406 196.261 421.671Z" stroke="url(#paint1_linear_1465_2)" stroke-opacity="0.8" stroke-width="4.01704"/>
<path opacity="0.8" d="M191.348 395.095C138.211 388.57 91.2699 372.361 58.3289 351.338C25.5257 330.403 5.99689 304.254 9.25031 277.757C12.5037 251.26 37.7785 230.612 74.672 218.235C111.72 205.805 161.188 201.434 214.326 207.958C267.463 214.483 314.404 230.692 347.345 251.715C380.148 272.65 399.677 298.799 396.423 325.296C393.17 351.793 367.895 372.441 331.002 384.818C293.953 397.248 244.485 401.619 191.348 395.095Z" stroke="url(#paint2_linear_1465_2)" stroke-opacity="0.8" stroke-width="4.01704"/>
<ellipse rx="186.52" ry="89.15" transform="matrix(-0.97688 -0.213787 -0.213787 0.97688 202.843 267.331)" fill="url(#paint3_linear_1465_2)"/>
<path fill-rule="evenodd" clip-rule="evenodd" d="M129.119 254.624H267.007C264.137 250.715 261.846 246.413 260.21 241.846C262.444 225.255 273.233 187.645 273.233 187.645C274.767 186.87 276.255 186.008 277.689 185.063C279.182 184.074 279.341 183.254 279.618 181.829C279.755 181.122 279.921 180.266 280.294 179.166C280.8 177.672 281.381 177.151 281.968 176.625C282.685 175.984 283.41 175.334 284.021 172.901C284.692 170.227 285.363 170.109 286.281 169.948C286.884 169.842 287.593 169.717 288.478 168.84C289.329 167.996 290.126 167.365 291.012 166.663C292.45 165.523 294.126 164.196 296.662 161.462C300.76 157.045 303.364 148.566 303.364 148.566C308.573 131.597 300.019 124.965 300.019 124.965C300.266 122.763 300.39 120.549 300.389 118.333V110.589C300.389 109.443 300.974 108.373 301.626 107.181C302.443 105.687 303.364 104.002 303.364 101.742C303.364 99.4615 302.663 97.9947 301.915 96.4297C301.331 95.2079 300.719 93.9262 300.389 92.1505C300.018 90.1533 300.196 87.8074 300.381 85.3617C300.572 82.8478 300.771 80.2284 300.389 77.7742C300.056 75.6289 299.654 74.3644 299.245 73.0753C298.73 71.455 298.204 69.796 297.785 66.3006C297.729 65.8346 297.677 65.3871 297.627 64.9561C297.007 59.5822 296.684 56.7858 292.205 53.0257C287.366 48.9641 278.442 41.2194 278.442 41.2194C264.308 27.2561 250.162 36.4349 250.162 36.4349C244.177 40.118 245.335 33.4862 245.335 33.4862C243.101 19.0984 221.524 25.3744 221.524 25.3744C221.524 25.3744 218.213 26.4759 212.263 23.8943C208.796 22.3899 207.726 23.2663 205.891 24.7705C204.577 25.8474 202.871 27.246 199.611 28.3231C195.548 29.7401 191.34 30.7097 187.063 31.2145C184.836 30.9699 182.588 30.9699 180.361 31.2145C178.418 31.3745 177.322 32.3741 176.241 33.3595C174.843 34.6345 173.471 35.8859 170.324 35.2646C166.723 34.5537 166.068 35.8406 165.055 37.8328C164.498 38.9273 163.832 40.2347 162.511 41.5407C160.818 43.2136 159.359 45.4193 158.096 47.3285C156.578 49.6223 155.344 51.4882 154.327 51.4882C153.359 51.4882 153.406 54.7685 153.46 58.5937C153.511 62.1339 153.568 66.1409 152.833 68.4462C152.456 69.6319 152.149 70.5021 151.912 71.1737C151.19 73.2184 151.118 73.4224 151.676 75.0893C151.924 75.8308 152.59 76.531 153.282 77.259C154.657 78.7054 156.137 80.2612 154.651 82.4668C153.725 83.8407 152.863 84.5114 152.118 85.091C151.065 85.9102 150.246 86.5475 149.812 88.7314C149.071 92.4603 152.417 100.205 152.417 100.205C152.417 100.205 152.417 109.785 152.787 112.367C152.967 113.622 154.116 115.303 155.334 117.085C156.621 118.969 157.986 120.966 158.367 122.693C158.827 124.782 158.854 126.14 158.9 128.462C158.928 129.877 158.963 131.651 159.108 134.167C159.273 137.051 159.014 139.793 158.759 142.486C158.426 145.995 158.102 149.421 158.737 152.972C159.86 159.248 163.946 170.308 163.946 170.308C164.148 179.503 165.908 188.598 169.155 197.214C175.105 211.235 175.858 214.55 175.858 214.55C170.636 214.55 164.748 224.92 160.528 232.352C158.433 236.042 156.749 239.007 155.762 239.62C154.868 240.175 154.045 240.629 153.168 241.112C151.128 242.237 148.797 243.521 144.603 246.619C140.062 249.973 135.355 252.268 129.119 254.624Z" fill="#AFB6E5"/>
<mask id="mask0_1465_2" style="mask-type:alpha" maskUnits="userSpaceOnUse" x="19" y="171" width="368" height="193">
<ellipse rx="186.52" ry="89.15" transform="matrix(-0.97688 -0.213787 -0.213787 0.97688 202.843 267.331)" fill="url(#paint4_linear_1465_2)"/>
</mask>
<g mask="url(#mask0_1465_2)">
<path d="M68.6786 510.626C68.6786 510.626 58.6309 524.268 56.3968 528.318C54.1627 532.368 56.7672 544.92 54.1626 553.032C51.5581 561.144 49.3356 575.52 45.9787 580.683C42.6217 585.846 33.338 586.948 39.2879 599.855C45.2378 612.763 45.9786 616.079 46.3606 622.344C46.7426 628.608 46.3606 636.353 46.3606 636.353C45.3321 642.433 43.5837 648.371 41.1516 654.045C37.4242 662.157 37.4242 664.371 40.7812 671.014C44.1381 677.658 44.1265 685.391 42.2628 698.298C40.3991 711.206 38.5471 717.092 38.9175 727.786C39.2879 738.479 37.4241 743.275 39.6582 751.019C41.8924 758.764 41.5221 760.979 41.5221 760.979C40.2649 762.138 38.8599 763.129 37.3431 763.927C37.3431 763.927 38.1767 767.61 38.9175 772.406C38.9175 772.406 49.3356 782.732 51.1877 794.527C53.0399 806.322 56.7673 806.689 57.1493 811.118C57.5313 815.547 56.3968 817.015 57.5196 822.913C58.6425 828.81 58.6772 833.606 60.1242 840.238C61.5711 846.87 62.7287 852.411 63.8399 856.461C64.9512 860.512 65.3332 866.788 62.6824 867.155C60.0315 867.522 55.5287 874.165 52.9589 874.899C50.3891 875.634 46.3143 874.532 40.7348 874.899C35.1553 875.267 40.7348 880.43 30.3167 879.328C19.8986 878.227 14.6895 877.848 12.8374 873.798C12.8374 873.798 5.39425 874.532 3.16013 873.431C0.926022 872.329 -2.41944 865.319 -2.41944 865.319C-2.41944 865.319 -9.86264 863.472 -10.9739 861.257C-12.0852 859.043 -16.1829 840.238 -17.6761 836.188C-19.1694 832.138 -21.0216 827.009 -19.8987 821.444C-18.7759 815.88 -23.9271 785.681 -20.2461 782.721C-16.565 779.761 -16.5534 779.405 -17.2942 777.191C-18.035 774.976 -21.6003 760.979 -21.6003 760.979C-22.798 761.504 -24.0933 761.775 -25.403 761.775C-26.7127 761.775 -28.0079 761.504 -29.2057 760.979C-29.2057 760.979 -31.8101 739.592 -31.4397 728.853C-31.4397 728.853 -34.0327 683.498 -35.1556 676.499C-36.2784 669.5 -41.4758 659.908 -38.5008 651.418C-35.5259 642.927 -34.7852 639.944 -35.1556 632.245C-35.526 624.546 -33.998 619.349 -35.1556 613.073C-36.3132 606.797 -31.8102 585.789 -31.0577 579.891C-30.3053 573.994 -31.8102 569.944 -29.9002 560.719C-27.9902 551.494 -25.8139 547.823 -23.9502 541.914C-22.0865 536.005 -22.7926 529.752 -19.1115 522.742C-15.4305 515.731 -9.06392 504.315 -7.2118 482.928C-5.35969 461.542 -4.60716 460.073 -3.48432 454.91C-2.36147 449.747 -1.26189 431.676 3.20634 424.677C7.67456 417.678 8.78593 415.085 9.52678 411.402C10.2676 407.719 16.2291 385.954 18.7873 379.689C21.3456 373.425 21.7622 368.629 22.8735 364.946C23.9847 361.263 25.1076 354.62 26.2189 349.089C27.3301 343.559 28.453 330.651 34.0325 321.071C39.612 311.491 43.293 301.566 47.796 295.255C52.299 288.945 55.2393 281.246 74.2119 275.75C93.1844 270.255 93.8905 266.17 100.616 265.424C107.341 264.678 112.898 260.261 122.61 256.945C132.322 253.629 138.607 251.048 144.604 246.619C150.6 242.19 152.788 241.467 155.763 239.62C158.738 237.773 168.044 214.55 175.858 214.55C175.858 214.55 175.106 211.235 169.156 197.214C165.909 188.598 164.148 179.503 163.947 170.308C163.947 170.308 159.86 159.248 158.738 152.972C157.615 146.696 159.49 140.81 159.108 134.167C158.726 127.523 159.108 126.055 158.367 122.693C157.626 119.331 153.158 114.948 152.788 112.367C152.417 109.785 152.417 100.205 152.417 100.205C152.417 100.205 149.072 92.4603 149.813 88.7314C150.554 85.0025 152.417 85.7827 154.651 82.4668C156.886 79.151 152.417 77.3037 151.676 75.0893C150.936 72.8749 151.306 73.2421 152.834 68.4462C154.362 63.6502 152.464 51.4882 154.327 51.4882C156.191 51.4882 158.784 45.2237 162.511 41.5407C166.239 37.8577 164.745 34.1632 170.325 35.2646C175.904 36.3661 175.904 31.5816 180.361 31.2145C182.588 30.9699 184.836 30.9699 187.063 31.2145C191.34 30.7097 195.548 29.7401 199.611 28.3231C207.425 25.7416 206.314 21.3128 212.264 23.8943C218.214 26.4759 221.524 25.3744 221.524 25.3744C221.524 25.3744 243.101 19.0984 245.336 33.4862C245.336 33.4862 244.178 40.118 250.163 36.4349C250.163 36.4349 264.308 27.2561 278.442 41.2194C278.442 41.2194 287.367 48.9641 292.206 53.0257C297.044 57.0873 297.033 60.0246 297.785 66.3006C298.538 72.5766 299.637 72.9323 300.39 77.7742C301.142 82.616 299.637 88.1004 300.39 92.1505C301.142 96.2007 303.364 97.6808 303.364 101.742C303.364 105.804 300.39 108.007 300.39 110.589V118.333C300.39 120.549 300.266 122.763 300.019 124.965C300.019 124.965 308.573 131.597 303.364 148.566C303.364 148.566 300.76 157.045 296.662 161.462C292.565 165.88 290.712 166.625 288.478 168.84C286.244 171.054 285.133 168.473 284.021 172.901C282.91 177.33 281.417 175.85 280.294 179.166C279.171 182.482 279.924 183.583 277.69 185.063C276.255 186.008 274.767 186.87 273.233 187.645C273.233 187.645 262.444 225.255 260.21 241.846C262.233 247.49 265.255 252.732 269.135 257.324C269.135 257.324 278.812 266.503 280.294 268.797C281.776 271.092 280.676 274.328 280.676 274.328C280.676 274.328 284.762 276.909 287.737 279.112C290.712 281.315 324.56 300.912 333.126 308.943C341.692 316.975 349.112 317.055 352.805 330.743C355.561 340.283 357.55 350.023 358.754 359.875C358.754 359.875 361.729 382.73 363.211 398.219C363.211 398.219 371.777 435.084 371.777 448.703C371.777 462.322 372.935 460.176 372.935 472.304C372.935 484.431 374.092 495.159 375.169 499.588C376.245 504.017 378.514 516.546 380.007 523.923C381.501 531.301 378.514 533.871 380.007 535.718C380.299 536.156 380.501 536.647 380.601 537.163C380.701 537.678 380.697 538.208 380.589 538.722C380.482 539.236 380.273 539.724 379.974 540.157C379.676 540.591 379.294 540.962 378.85 541.248C377.368 541.983 385.17 545.31 382.947 551.208C380.725 557.105 378.549 554.523 383.353 560.054C388.157 565.584 387.404 568.533 386.663 571.527C385.923 574.522 380.343 573.007 385.506 577.803C390.669 582.599 394.431 593.648 396.283 606.189C398.135 618.729 396.665 617.662 400.381 620.932C404.096 624.202 406.331 622.412 407.824 627.943C409.317 633.473 410.046 637.902 412.28 640.472C414.514 643.042 420.094 643.799 420.094 651.165C420.094 658.531 425.303 668.502 428.649 676.981C431.994 685.46 433.487 687.307 433.487 688.454C433.487 689.602 431.994 692.883 429.019 696.566C431.019 701.543 433.644 706.25 436.832 710.575C436.832 710.575 442.782 719.054 443.535 726.065C444.287 733.075 445.387 734.543 445.757 737.859C446.128 741.175 445.757 740.074 443.535 746.338C441.312 752.603 426.796 773.622 424.192 776.169C424.192 776.169 407.453 776.169 404.096 775.802C401.415 775.363 398.793 774.62 396.283 773.588C394.304 774.027 392.241 773.9 390.333 773.221C386.7 772.163 383.122 770.926 379.614 769.515C378.132 768.769 369.948 765.098 375.527 761.036C378.313 759.746 380.935 758.137 383.341 756.24C386.316 753.658 386.687 751.444 386.687 751.444C386.687 751.444 385.193 737.068 386.687 729.644C388.18 722.221 387.844 722.645 384.823 719.318C381.802 715.991 384.452 718.171 381.848 716.002L379.243 713.788C379.243 713.788 366.603 710.472 363.246 700.892C363.246 700.892 352.087 668.766 346.507 664.75C346.507 664.75 343.162 666.23 344.285 672.127C345.408 678.025 346.507 687.249 345.026 689.831C343.544 692.413 342.421 693.881 342.421 697.564C342.421 701.247 340.928 706.043 340.928 710.472C340.928 714.901 341.31 726.328 341.31 726.328C339.786 728.544 338.767 731.061 338.323 733.706C337.582 738.123 337.582 741.818 336.842 744.766C336.101 747.715 335.348 749.918 334.237 750.297C333.126 750.675 330.521 745.868 332.373 756.928C334.225 767.989 335.348 770.203 336.842 776.101C338.335 781.998 339.076 784.58 339.446 790.11C339.817 795.64 338.705 804.865 340.187 814.812C341.669 824.76 342.421 826.986 343.162 833.985C343.903 840.984 344.319 849.107 344.319 853.891C344.319 858.676 341.715 878.605 341.344 898.879C341.191 912.801 340.322 926.706 338.74 940.54C337.247 955.662 330.556 985.149 330.926 998.057C331.297 1010.96 329.433 1024.24 328.692 1031.61C327.951 1038.97 327.199 1048.21 326.828 1052.26C326.458 1056.31 328.692 1065.53 324.976 1072.16C321.261 1078.8 320.138 1082.49 315.299 1089.12C310.46 1095.75 304.881 1100.19 300.424 1106.46C295.968 1112.72 288.513 1119.73 286.661 1123.05C284.809 1126.37 281.452 1128.21 279.218 1135.58C276.984 1142.94 276.613 1143.32 276.243 1152.18C275.872 1161.04 273.638 1182.41 271.404 1190.15C271.404 1190.15 283.304 1205.27 286.29 1219.28C289.277 1233.29 290.006 1231.82 291.488 1242.51C292.97 1253.21 300.054 1271.27 301.906 1279.01C303.758 1286.75 310.46 1304.81 311.583 1310.71C312.979 1318.39 313.849 1326.15 314.188 1333.95C314.188 1339.48 312.695 1338.37 314.188 1341.32C315.681 1344.27 316.04 1343.16 319.015 1348.69C320.585 1351.98 323.03 1354.78 326.088 1356.8C327.951 1358.28 327.951 1362.7 322.001 1365.66C322.001 1365.66 317.533 1365.66 321.619 1370.44C321.619 1370.44 328.692 1381.14 332.037 1384.45C335.383 1387.77 340.222 1384.45 340.222 1384.45C340.222 1384.45 343.937 1383.3 347.665 1387.78C351.392 1392.25 351.751 1392.94 353.244 1392.56C354.738 1392.18 355.096 1391.09 358.083 1394.41C360.404 1397.07 362.517 1399.91 364.403 1402.89C365.885 1405.1 365.561 1403.62 368.119 1408.05C370.677 1412.48 368.86 1412.85 372.958 1414.32C377.056 1415.79 378.537 1416.53 379.278 1418.38C379.569 1419.33 380.049 1420.2 380.689 1420.96C381.329 1421.72 382.117 1422.35 383.005 1422.8C384.857 1423.54 384.858 1422.06 387.092 1425.01C389.326 1427.96 392.671 1426.16 396.769 1430.17C400.867 1434.19 401.226 1434.24 405.694 1436.44C410.162 1438.64 407.558 1435.7 414.619 1439.02C421.68 1442.34 418.335 1439.02 421.692 1442.35C425.049 1445.67 426.519 1443.08 429.494 1446.4C432.469 1449.71 451.071 1452.29 458.143 1458.19C465.216 1464.09 469.302 1466.67 469.302 1469.67C469.302 1472.66 472.648 1479.25 469.302 1485.51C469.302 1485.51 448.466 1496.2 412.755 1494.69C382.09 1494.27 351.502 1491.56 321.249 1486.58C321.249 1486.58 288.513 1481.41 270.663 1479.57C270.663 1479.57 256.159 1480.3 249.827 1468.09C249.827 1468.09 246.852 1459.25 251.691 1452.6C251.691 1452.6 246.482 1431.95 254.295 1421.63C254.295 1421.63 253.138 1409.46 256.159 1405.4C259.18 1401.34 259.504 1400.24 260.615 1398.77C261.727 1397.3 262.109 1392.49 262.109 1391.03C262.109 1389.56 256.9 1391.76 252.848 1392.87C248.797 1393.99 248.021 1393.61 244.664 1394.02C241.307 1394.43 243.507 1393.65 241.319 1394.39C239.131 1395.12 231.283 1386.28 230.53 1380.75C229.778 1375.22 232.023 1375.22 232.023 1375.22C232.023 1375.22 220.864 1350.88 220.448 1347.2C220.031 1343.51 205.561 1298.16 203.709 1288.2C201.857 1278.24 200.734 1271.24 199.982 1267.55C199.229 1263.85 195.19 1256.07 195.537 1256.07C195.884 1256.07 195.537 1254.59 192.921 1259.02C190.305 1263.45 193.662 1262.71 184.737 1271.55C175.812 1280.4 168.369 1287.41 166.875 1289.62C165.382 1291.84 166.875 1296.62 168.033 1298.1C169.19 1299.58 160.96 1303.26 161.331 1308.06C161.701 1312.86 163.194 1315.06 155.751 1314.33C148.308 1313.59 144.592 1314.33 141.988 1309.9C139.383 1305.47 137.16 1303.63 133.433 1300.72C129.706 1297.8 128.594 1298.87 128.976 1302.56C129.358 1306.26 128.977 1308.1 129.347 1309.56C129.717 1311.03 130.088 1311.04 133.804 1316.21C136.541 1319.85 138.56 1323.98 139.754 1328.37C141.247 1332.8 141.617 1335.38 143.851 1336.48C146.085 1337.58 148.69 1338.33 146.085 1340.91C143.481 1343.49 142.358 1344.96 144.222 1346.44C146.085 1347.92 149.431 1346.06 149.431 1350.49C149.431 1354.92 146.085 1354.55 148.69 1358.6C151.294 1362.65 153.899 1363.76 156.122 1365.61C158.344 1367.46 155.751 1365.23 157.615 1371.14C159.478 1377.05 156.122 1376.67 163.565 1379.99C171.008 1383.3 169.885 1378.14 171.008 1383.3C172.131 1388.47 174.724 1389.57 178.439 1389.94C182.155 1390.3 184.031 1390.31 184.401 1393.63C184.771 1396.95 211.176 1402.81 214.151 1422.75C214.151 1422.75 214.533 1432.34 212.669 1437.14C212.669 1437.14 200.769 1440.82 178.439 1437.87C178.439 1437.87 136.408 1436.03 109.633 1410.22C109.633 1410.22 87.6397 1389.2 65.368 1377.77C54.7179 1372.73 44.5113 1366.81 34.8544 1360.08C21.0909 1350.12 11.4252 1346.44 14.0182 1337.58C16.6111 1328.72 21.0793 1323.94 22.943 1322.84C24.8067 1321.74 26.2884 1306.62 40.8044 1298.5C40.8044 1298.5 48.6064 1281.18 52.3801 1281.91C56.1538 1282.65 55.355 1284.86 58.7004 1284.86C62.0458 1284.86 82.1412 1264.59 82.1412 1264.59C82.1412 1264.59 77.3025 1261.64 82.1412 1258.68C86.9798 1255.72 91.066 1246.88 91.066 1246.88L95.9047 1246.52C95.9047 1246.52 116.741 1208.91 121.938 1204.86C128.327 1199.9 133.965 1194.06 138.677 1187.52C144.256 1179.79 149.836 1166.87 155.045 1159.87C160.254 1152.87 166.204 1128.17 166.204 1128.17C166.204 1128.17 161.736 1103.83 160.624 1095.35C159.513 1086.87 137.195 966.676 137.195 964.462C137.195 962.248 125.284 896.619 125.284 894.772C125.284 892.924 117.47 865.285 115.618 856.06C114.429 849.936 112.812 843.902 110.779 838.001C108.916 832.103 104.089 818.495 103.336 808.169C102.584 797.843 102.966 785.302 101.855 779.038C100.743 772.773 99.6205 769.079 99.2501 766.876C98.8797 764.673 97.7568 763.285 97.7568 758.994C97.7568 754.703 97.3863 747.336 97.3863 747.336L98.5439 737.377L94.0757 724.837C94.0757 724.837 74.397 722.255 68.7828 720.787L71.3873 680.962C71.3873 680.962 67.2896 679.126 71.0169 673.963C71.0169 673.963 73.9918 660.688 73.9918 656.259C73.9918 651.831 73.6098 638.2 73.2394 634.46C72.869 630.719 71.3873 610.87 71.3873 598.329C71.3873 585.789 69.1531 573.994 69.894 566.203C70.6348 558.413 72.1281 546.297 72.4985 538.552C72.617 533.012 72.3696 527.47 71.7578 521.961C71.6999 520.952 68.6786 510.626 68.6786 510.626Z" fill="#AFB6E5"/>
</g>
<path fill-rule="evenodd" clip-rule="evenodd" d="M386.19 0H19.7424V232.581L19.8289 232.597C15.3178 279.537 86.7175 333.178 183.784 354.421C284.415 376.443 374.525 355.305 385.051 307.207C385.473 305.281 385.76 303.341 385.917 301.389L386.19 301.441V0Z" fill="url(#paint5_linear_1465_2)"/>
<path d="M182.568 359.975C131.611 348.823 87.364 328.807 57.0337 305.204C27.0684 281.884 9.08002 253.659 15.0805 226.24C21.081 198.822 49.2145 180.69 86.1809 172.018C123.598 163.241 172.161 163.536 223.118 174.688C274.075 185.84 318.322 205.856 348.653 229.459C378.618 252.778 396.606 281.004 390.606 308.423C384.606 335.841 356.472 353.973 319.506 362.645C282.089 371.422 233.525 371.127 182.568 359.975Z" stroke="url(#paint6_linear_1465_2)" stroke-width="11.3725"/>
<g filter="url(#filter0_f_1465_2)">
<path d="M182.437 360.216C131.48 349.064 87.2321 329.048 56.9018 305.445C26.9365 282.126 8.94818 253.9 14.9487 226.481C20.9491 199.063 49.0827 180.931 86.0491 172.259C123.466 163.482 172.029 163.777 222.986 174.929C273.943 186.081 318.191 206.097 348.521 229.7C378.486 253.02 396.475 281.245 390.474 308.664C384.474 336.082 356.34 354.214 319.374 362.886C281.957 371.663 233.394 371.368 182.437 360.216Z" stroke="url(#paint7_linear_1465_2)" stroke-width="11.3725"/>
</g>
<defs>
<filter id="filter0_f_1465_2" x="0.520415" y="152.811" width="404.382" height="229.523" filterUnits="userSpaceOnUse" color-interpolation-filters="sRGB">
<feFlood flood-opacity="0" result="BackgroundImageFix"/>
<feBlend mode="normal" in="SourceGraphic" in2="BackgroundImageFix" result="shape"/>
<feGaussianBlur stdDeviation="3.79082" result="effect1_foregroundBlur_1465_2"/>
</filter>
<linearGradient id="paint0_linear_1465_2" x1="184.615" y1="372.948" x2="183.117" y2="447.622" gradientUnits="userSpaceOnUse">
<stop stop-color="#5092F3" stop-opacity="0"/>
<stop offset="0.560417" stop-color="#5092F3" stop-opacity="0.5"/>
<stop offset="1" stop-color="#9E00F6"/>
</linearGradient>
<linearGradient id="paint1_linear_1465_2" x1="202.802" y1="339.783" x2="195.1" y2="424.513" gradientUnits="userSpaceOnUse">
<stop stop-color="#5092F3" stop-opacity="0"/>
<stop offset="0.560417" stop-color="#5092F3" stop-opacity="0.5"/>
<stop offset="1" stop-color="#9E00F6"/>
</linearGradient>
<linearGradient id="paint2_linear_1465_2" x1="218.635" y1="286.72" x2="202.802" y2="395.201" gradientUnits="userSpaceOnUse">
<stop offset="0.0298552" stop-color="#5092F3" stop-opacity="0"/>
<stop offset="0.560417" stop-color="#5092F3" stop-opacity="0.5"/>
<stop offset="1" stop-color="#9E00F6"/>
</linearGradient>
<linearGradient id="paint3_linear_1465_2" x1="186.52" y1="-2.61414e-06" x2="144.595" y2="186.88" gradientUnits="userSpaceOnUse">
<stop stop-color="#4D40BC"/>
<stop offset="1"/>
</linearGradient>
<linearGradient id="paint4_linear_1465_2" x1="186.52" y1="-2.61414e-06" x2="144.595" y2="186.88" gradientUnits="userSpaceOnUse">
<stop stop-color="#4D40BC"/>
<stop offset="1"/>
</linearGradient>
<linearGradient id="paint5_linear_1465_2" x1="202.966" y1="0" x2="202.966" y2="369.337" gradientUnits="userSpaceOnUse">
<stop stop-color="#6454F0" stop-opacity="0"/>
<stop offset="1" stop-color="#6454F0" stop-opacity="0.4"/>
</linearGradient>
<linearGradient id="paint6_linear_1465_2" x1="221.902" y1="180.243" x2="183.784" y2="354.42" gradientUnits="userSpaceOnUse">
<stop stop-color="#24E8DE" stop-opacity="0"/>
<stop offset="0.560417" stop-color="#5092F3" stop-opacity="0.5"/>
<stop offset="1" stop-color="#9E00F6"/>
</linearGradient>
<linearGradient id="paint7_linear_1465_2" x1="221.771" y1="180.484" x2="183.652" y2="354.661" gradientUnits="userSpaceOnUse">
<stop stop-color="#24E8DE" stop-opacity="0"/>
<stop offset="1" stop-color="#9E00F6"/>
</linearGradient>
</defs>
</svg>
