<svg width="265" height="160" viewBox="0 0 265 160" fill="none" xmlns="http://www.w3.org/2000/svg">
<path d="M112.58 23.7188V29.6339L104.952 34.0993L104.98 28.1841L112.58 23.7188Z" fill="#C0E2FF"/>
<path d="M193.815 94.8169L193.786 100.732L101.642 47.1476L101.67 41.2324L193.815 94.8169Z" fill="#C0E2FF"/>
<path d="M191.281 96.2955L191.253 102.24L99.1084 48.6261V42.7109L191.281 96.2955Z" fill="#2E8DE1"/>
<path d="M101.67 41.2324L101.642 47.1476L99.1084 48.6264V42.7112L101.67 41.2324Z" fill="#C0E2FF"/>
<path d="M178.414 103.834V109.749L86.2407 56.1359L86.2695 50.2207L178.414 103.834Z" fill="#C0E2FF"/>
<path d="M175.88 105.315V111.23L83.7075 57.6456L83.7363 51.7305L175.88 105.315Z" fill="#2E8DE1"/>
<path d="M86.2695 50.2207L86.2407 56.1359L83.7075 57.6437L83.7363 51.7285L86.2695 50.2207Z" fill="#C0E2FF"/>
<path d="M163.042 112.825V118.74L70.8691 65.1554L70.8979 59.2402L163.042 112.825Z" fill="#C0E2FF"/>
<path d="M160.509 114.301L160.481 120.245L68.3364 66.632L68.3652 60.7168L160.509 114.301Z" fill="#2E8DE1"/>
<path d="M70.8984 59.2402L70.8696 65.1554L68.3364 66.6342L68.3652 60.719L70.8984 59.2402Z" fill="#C0E2FF"/>
<path d="M116.811 8.92969L116.782 14.8449L15.5415 74.1126L15.5703 68.1974L116.811 8.92969Z" fill="#2E8DE1"/>
<path d="M127.635 110.184L127.606 116.099L55.4971 74.142V68.2559L127.635 110.184Z" fill="#C0E2FF"/>
<path d="M125.101 111.663L125.072 117.578L52.9634 75.6496V69.7344L125.101 111.663Z" fill="#2E8DE1"/>
<path d="M55.4966 68.2559V74.142L52.9634 75.6498V69.7346L55.4966 68.2559Z" fill="#C0E2FF"/>
<path d="M249.141 85.8849L249.113 91.8001L116.783 14.8449L116.812 8.92969L249.141 85.8849Z" fill="#2E8DE1"/>
<path d="M223.781 88.3797V94.2949L112.58 29.6339V23.7188L223.781 88.3797Z" fill="#C0E2FF"/>
<path d="M216.181 92.8446L216.152 98.7597L104.952 34.0988L104.98 28.1836L216.181 92.8446Z" fill="#2E8DE1"/>
<path d="M223.78 88.3809V94.296L216.152 98.7614L216.181 92.8462L223.78 88.3809Z" fill="#2E8DE1"/>
<path d="M193.814 94.8164L193.786 100.732L191.252 102.239L191.281 96.2952L193.814 94.8164Z" fill="#2E8DE1"/>
<path d="M178.414 103.834V109.749L175.881 111.228V105.313L178.414 103.834Z" fill="#2E8DE1"/>
<path d="M127.636 110.186L127.607 116.101L125.074 117.58L125.103 111.664L127.636 110.186Z" fill="#2E8DE1"/>
<path d="M127.634 110.184L125.101 111.663L52.9634 69.7346L55.4966 68.2559L127.634 110.184Z" fill="#2E8DE1"/>
<path d="M163.042 112.825L160.509 114.304L68.3647 60.719L70.8979 59.2402L163.042 112.825Z" fill="#2E8DE1"/>
<path d="M163.042 112.822V118.737L160.48 120.245L160.509 114.301L163.042 112.822Z" fill="#2E8DE1"/>
<path d="M116.811 8.92969L249.227 85.8849L147.871 145.153L15.4556 68.1974L116.811 8.92969ZM216.152 92.786L223.751 88.3206L112.522 23.7176L104.98 28.183L216.152 92.786ZM175.851 105.254L178.385 103.775L86.2693 50.1619L83.7361 51.6697L175.851 105.312V105.254ZM191.252 96.2365L193.785 94.7577L101.67 41.1732L99.1366 42.652L191.252 96.2365ZM160.508 114.301L163.042 112.822L70.9263 59.2377L68.3931 60.7165L160.508 114.301ZM125.102 111.662L127.635 110.184L55.497 68.2264L52.9638 69.7342L125.102 111.662Z" fill="#C0E2FF"/>
<path d="M147.871 145.125V151.041L15.5415 74.1144L15.5703 68.1992L147.871 145.125Z" fill="#C0E2FF"/>
<path d="M223.781 88.3797L216.181 92.8451L104.98 28.1841L112.58 23.7188L223.781 88.3797Z" fill="#2E8DE1"/>
<path d="M193.815 94.8169L191.281 96.2957L99.1084 42.7112L101.67 41.2324L193.815 94.8169Z" fill="#2E8DE1"/>
<path d="M178.414 103.834L175.88 105.313L83.7363 51.7285L86.2695 50.2207L178.414 103.834Z" fill="#2E8DE1"/>
<path d="M249.141 85.8867L249.113 91.8019L147.872 151.041V145.125L249.141 85.8867Z" fill="#C0E2FF"/>
<path d="M264.455 85.8574L264.426 91.8016L147.929 160V154.085L264.455 85.8574Z" fill="#2979C0"/>
<path d="M147.929 154.085V160L0.256836 74.1144L0.285622 68.1992L147.929 154.085Z" fill="#1A5A93"/>
<path d="M147.872 145.154L249.141 85.886L116.725 8.93075L15.571 68.1985L147.987 145.154H147.872ZM116.783 0L264.455 85.886L147.929 154.084L0.256836 68.1985L116.783 0Z" fill="#2E8DE1"/>
<path d="M157.543 115.201V118.159L156.996 120.449V117.492L157.543 115.201Z" fill="#E89525"/>
<path d="M132.758 117.463V120.42L132.125 118.159L132.153 115.201L132.758 117.463Z" fill="#FFA62E"/>
<path d="M160.882 117.869V120.827L159.097 122.885L159.126 119.928L160.882 117.869Z" fill="#E89525"/>
<path d="M130.628 119.928V122.885L128.815 120.827L128.844 117.869L130.628 119.928Z" fill="#FFA62E"/>
<path d="M128.699 121.93V124.858L127.116 123.93L127.145 120.973L128.699 121.93Z" fill="#FFA62E"/>
<path d="M162.638 120.973L162.609 123.93L159.846 125.583L159.874 122.625L162.638 120.973Z" fill="#E89525"/>
<path d="M162.638 124.277V127.235L159.126 128.279L159.155 125.321L162.638 124.277Z" fill="#E89525"/>
<path d="M160.941 127.381V130.338L157.055 130.715V127.758L160.941 127.381Z" fill="#E89525"/>
<path d="M157.658 130.018V133.005L153.743 132.628L153.772 129.699L157.658 130.018Z" fill="#E89525"/>
<path d="M153.11 131.96V134.917L149.569 133.874V130.916L153.11 131.96Z" fill="#E89525"/>
<path d="M153.772 129.699L153.743 132.628L153.11 134.918V131.961L153.772 129.699Z" fill="#DE8713"/>
<path d="M128.469 132.222V135.179L114.738 133.034L114.767 130.076L128.469 132.222Z" fill="#DE8713"/>
<path d="M147.757 132.977V135.935L146.145 135.036L146.173 132.078L147.757 132.977Z" fill="#E89525"/>
<path d="M149.569 130.916V133.874L147.756 135.932V132.975L149.569 130.916Z" fill="#DE8713"/>
<path d="M132.212 140.226V143.183L128.47 135.18V132.223L132.212 140.226Z" fill="#E89525"/>
<path d="M157.543 115.202L156.996 117.493L160.882 117.87L159.126 119.928L162.638 120.972L159.875 122.625L162.638 124.278L159.155 125.322L160.94 127.38L157.054 127.757L157.658 130.019L153.772 129.7L153.11 131.962L149.569 130.918L147.756 132.977L146.173 132.078L132.211 140.226L128.469 132.223L114.767 130.077L128.7 121.929L127.145 120.972L130.628 119.928L128.843 117.87L132.758 117.464L132.154 115.202L136.04 115.55L136.673 113.259L140.214 114.303L141.999 112.273L144.849 113.897L147.641 112.273L149.483 114.303L152.995 113.259L153.657 115.55L157.543 115.202Z" fill="#FFA62E"/>
<path d="M146.173 132.078L146.144 135.036L132.211 143.184V140.226L146.173 132.078Z" fill="#DE8713"/>
</svg>
