<svg width="537" height="496" viewBox="0 0 537 496" fill="none" xmlns="http://www.w3.org/2000/svg">
<path d="M185.833 252.738C185.828 252.516 185.748 252.296 185.59 252.111L185.293 251.764L196.324 245.959L183.203 294.667L182.974 294.786L158.278 265.949L180.168 254.147C180.716 255.797 182.013 257.433 183.527 258.223C185.535 259.268 187.164 258.43 187.164 256.35C187.164 255.175 186.645 253.855 185.831 252.74L185.833 252.738ZM155.94 330.896L167.013 308.139C167.057 308.048 167.079 307.952 167.079 307.858L173.255 311.078V321.794L155.938 330.896H155.94ZM165.895 307.24C165.756 307.313 165.64 307.425 165.571 307.569L154.116 331.109L137.165 311.243C137.173 311.143 137.178 311.041 137.178 310.935C137.178 310.507 137.108 310.059 136.981 309.609L153.749 300.912L165.894 307.242L165.895 307.24ZM218.399 346.511L157.551 333.101L175.018 323.918L218.399 346.51V346.511ZM156.955 334.436L220.377 348.41L184.622 366.863L156.955 334.436ZM167.4 245.44C167.599 245.44 167.785 245.372 167.925 245.258L173.257 248.037V254.8L156.537 263.816L156.426 263.783L137.998 242.265L167.304 245.435L167.399 245.44H167.4ZM165.05 243.759L137.07 240.733C137.01 240.457 136.928 240.178 136.824 239.901L147.259 234.487L165.05 243.76V243.759ZM197.603 247.239L221.411 274.764L185.092 293.683L197.603 247.24V247.239ZM247.674 308.027L185.285 297.479L184.78 296.891L223.227 276.864L248.938 306.587C248.395 306.81 248.001 307.275 247.828 307.947L247.674 308.027ZM186.732 299.17L245.572 309.12L210.744 327.207L186.732 299.17ZM219.945 229.54L155.261 214.731L192.544 195.379L220.765 228.512C220.394 228.727 220.111 229.077 219.945 229.54ZM154.887 216.125L219.23 230.855L183.499 249.657L154.887 216.124V216.125ZM154.106 212.287L174.751 174.491L190.744 193.267L154.106 212.287ZM172.791 174.836L152.053 212.803L135.625 193.546L172.792 174.835L172.791 174.836ZM168.675 170.614L122.088 161.73L127.876 149.818L168.675 170.614ZM128.513 148.509L146.28 111.949L172.679 171.021L128.513 148.51V148.509ZM141.851 117.495L127.124 147.8L122.234 145.308L141.851 117.495ZM126.488 149.111L120.91 160.591L115.913 148.927L121.053 146.339L126.49 149.111H126.488ZM122.02 163.183L172.118 172.734L134.275 191.786L122.02 163.183ZM175.622 249.269V253.525L179.637 251.361L175.622 249.269ZM175.622 312.31V320.553L183.496 316.414L175.622 312.31ZM219.263 345.32L176.59 323.095L186.198 318.044C186.267 318.008 186.331 317.967 186.391 317.923L206.435 328.37C206.25 328.725 206.146 329.171 206.146 329.694C206.146 331.774 207.774 334.309 209.782 335.356C210.213 335.58 210.624 335.718 211.007 335.776L219.262 345.321L219.263 345.32ZM54.8427 193.545L54.9258 193.54L66.5787 192.436L72.0766 195.301L32.4612 215.985L5.15982 219.405L54.6982 193.534C54.7445 193.541 54.7936 193.546 54.8427 193.546V193.545ZM64.2571 191.226L54.7622 192.126C54.6668 192.136 54.5768 192.159 54.4964 192.195C54.3165 192.164 54.1242 192.19 53.9552 192.277L1.46956 219.691C1.28143 219.788 1.15602 219.945 1.10422 220.12C0.422603 220.45 1.52588e-05 221.187 1.52588e-05 222.247C1.52588e-05 224.327 1.6277 226.862 3.6371 227.909C5.64514 228.956 7.2742 228.118 7.2742 226.038C7.2742 225.515 7.17195 224.964 6.98518 224.415L76.6134 260.706L26.8692 286.559C26.4903 286.755 26.3621 287.189 26.5789 287.528C26.662 287.658 26.7834 287.756 26.9224 287.816C26.8365 288.091 26.7915 288.404 26.7915 288.752C26.7915 290.832 28.4192 293.367 30.4273 294.416C32.4353 295.46 34.063 294.622 34.063 292.543C34.063 292.135 34.0003 291.711 33.8844 291.282L76.9829 313.746C77.3005 314.876 77.9876 316.019 78.8668 316.909V327.992C77.6386 327.956 76.7879 328.81 76.7879 330.313C76.7879 331.582 77.3932 333.019 78.3215 334.186L63.0029 395.215L62.9566 395.3C62.8585 395.495 62.8162 395.705 62.8285 395.911L42.9362 475.165C42.7386 475.354 42.5982 475.596 42.5504 475.872C42.5136 476.085 42.5355 476.294 42.6036 476.486L36.555 500.582C36.375 501.292 36.8685 501.999 37.6551 502.16C38.4389 502.322 39.2242 501.877 39.4014 501.167L45.3178 477.6L104.138 485.948L163.285 539.596L168.548 569.886C168.66 570.537 169.282 571 169.989 571L170.217 570.985C171.014 570.872 171.56 570.196 171.433 569.476L166.101 538.786L166.1 538.781L166.094 538.749L166.093 538.747L166.068 538.604L187.861 501.83L219.537 510.13L228.337 539.835C228.512 540.425 229.103 540.813 229.746 540.813L230.125 540.769C230.905 540.582 231.367 539.858 231.159 539.154L181.969 373.105C182.405 373.523 182.884 373.879 183.387 374.141C185.394 375.188 187.023 374.348 187.023 372.268C187.023 371.268 186.646 370.165 186.034 369.171L222.194 350.508C222.85 351.833 223.946 353.048 225.186 353.695C227.194 354.742 228.822 353.904 228.822 351.823C228.822 350.412 228.074 348.793 226.965 347.571C227.051 347.254 227.007 346.91 226.814 346.605C226.438 346.014 225.635 345.786 224.96 346.052C224.359 345.776 223.798 345.673 223.313 345.723L213.341 334.195C213.387 333.977 213.413 333.742 213.413 333.486C213.413 332.477 213.03 331.359 212.406 330.357C212.638 330.053 212.676 329.663 212.512 329.331L248.174 310.807C248.793 312.295 249.989 313.706 251.363 314.424C253.371 315.471 255 314.633 255 312.552C255 311.047 254.148 309.304 252.916 308.06L252.927 308.04L252.928 308.037L252.966 307.948L252.977 307.921L252.978 307.917L252.988 307.89L252.989 307.887C253.006 307.836 253.018 307.787 253.029 307.735V307.731L253.034 307.703V307.699C253.089 307.357 252.996 306.994 252.741 306.7L198.988 244.555L220.513 233.227C221.177 234.481 222.231 235.617 223.415 236.235C225.423 237.282 227.051 236.444 227.051 234.364C227.051 232.986 226.337 231.408 225.269 230.196L225.271 230.189L225.275 230.167L225.276 230.157L225.28 230.135L225.282 230.125L225.284 230.103L225.286 230.095L225.288 230.073L225.29 230.064L225.291 230.042L225.293 230.033L225.294 230.011L225.295 230.002L225.297 229.979V229.97V229.947V229.938L225.295 229.916L225.294 229.908L225.293 229.884L225.291 229.876L225.29 229.852L225.288 229.844L225.286 229.82L225.284 229.813L225.282 229.788L225.28 229.781L225.276 229.756L225.275 229.749L225.268 229.717L225.263 229.692L225.261 229.685L225.254 229.66L225.253 229.654L225.246 229.628L225.243 229.622L225.237 229.598L225.234 229.591L225.226 229.566L225.223 229.561L225.213 229.534L225.211 229.53L225.201 229.503L225.198 229.499L225.188 229.472L225.186 229.468L225.174 229.441L225.173 229.439L225.159 229.41L225.158 229.408L225.144 229.38L225.143 229.378C225.122 229.339 225.098 229.301 225.072 229.263L225.07 229.26L225.051 229.233L225.05 229.231L224.986 229.15V229.148L224.964 229.122L224.961 229.119L176.203 171.872L148.04 108.854L148.033 108.838L148.032 108.836L148.025 108.822L148.017 108.805L148.01 108.793L148 108.774L147.993 108.762L147.984 108.743L147.977 108.731L147.968 108.713L147.959 108.7L147.95 108.683L147.942 108.671L147.923 108.641L147.912 108.625L147.902 108.613L147.893 108.598L147.882 108.585L147.872 108.571L147.861 108.557L147.85 108.544L147.838 108.53L147.828 108.518L147.816 108.505L147.807 108.493L147.793 108.48L147.77 108.455L147.76 108.444L147.745 108.431L147.736 108.421L147.721 108.407L147.71 108.398L147.695 108.384L147.685 108.374L147.669 108.361L147.659 108.352L147.643 108.338L147.632 108.33L147.616 108.318L147.606 108.309L147.589 108.297L147.578 108.289L147.56 108.277L147.549 108.27L147.531 108.257L147.52 108.25L147.501 108.239L147.492 108.233L147.473 108.222L147.462 108.215L147.443 108.204L147.433 108.198L147.413 108.187L147.402 108.181L147.381 108.171L147.37 108.166L147.35 108.156L147.339 108.151L147.319 108.143L147.308 108.138L147.287 108.129L147.276 108.124L147.256 108.116L147.19 108.091L147.18 108.087L147.158 108.08L147.145 108.076L147.124 108.07L147.111 108.066L147.09 108.06L147.056 108.052L147.043 108.048L147.021 108.043L147.009 108.039L146.987 108.034L146.975 108.032L146.953 108.028L146.941 108.026L146.919 108.022L146.885 108.017L146.871 108.015L146.85 108.012L146.78 108.006L146.767 108.005L146.746 108.004L146.732 108.002L146.711 108.001L146.697 108H146.677H146.662L146.641 108.001H146.626L146.606 108.002H146.591L146.57 108.004L146.555 108.005L146.536 108.007L146.52 108.009L146.501 108.011L146.484 108.014L146.465 108.016L146.449 108.018L146.43 108.021L146.413 108.025L146.396 108.028L146.378 108.032L146.36 108.036L146.343 108.039L146.325 108.043L146.307 108.048L146.291 108.052L146.272 108.057C146.163 108.085 146.054 108.124 145.951 108.178L106.029 128.844C105.372 129.185 105.12 129.917 105.424 130.529L94.9066 144.112L80.2573 143.767H80.2505C80.1115 143.764 79.9697 143.795 79.8429 143.863L28.4669 170.695C27.0996 170.525 26.1304 171.391 26.1304 172.997C26.1304 175.078 27.7581 177.612 29.7661 178.659C31.7741 179.706 33.4032 178.868 33.4032 176.787C33.4032 176.196 33.271 175.569 33.0365 174.948L64.2489 191.215L64.2571 191.226ZM120.774 144.731L114.045 144.573L108.145 130.804L143.507 112.499L120.772 144.731H120.774ZM111.516 144.513L97.708 144.188L106.508 132.823L111.516 144.513ZM80.4441 145.203L93.831 145.519L90.8401 149.382L90.8292 149.396L90.8183 149.41L90.7964 149.438L90.7855 149.453L89.4223 151.214L59.3386 166.761L32.5116 170.239L80.4468 145.203H80.4441ZM96.627 145.585L110.141 145.903L94.3531 148.52L96.6256 145.583L96.627 145.585ZM114.662 146.01L118.304 146.097L115.339 147.589L114.662 146.01ZM30.31 286.41L77.3428 261.967C77.7095 262.765 78.2398 263.533 78.8696 264.171V272.499L59.8825 282.268C59.7217 282.351 59.6044 282.478 59.5417 282.623L30.31 286.411V286.41ZM83.2128 165.389L97.9657 157.963L127.957 188.711L83.2128 165.389ZM100.049 156.913L113.853 149.963L129.977 187.595L100.049 156.913ZM113.28 148.626L98.984 155.823L94.0055 150.719L112.838 147.597L113.279 148.624L113.28 148.626ZM96.8996 156.872L82.1318 164.307L91.8761 151.722L96.8996 156.872ZM63.3274 282.132L78.8682 274.137V277.138C77.6399 277.101 76.7893 277.957 76.7893 279.462C76.7893 279.76 76.8234 280.066 76.8861 280.376L63.3274 282.134V282.132ZM63.566 166.213L87.308 153.945L79.3985 164.16L63.5673 166.213H63.566ZM63.3765 212.113L78.8682 204.144V207.917C77.6399 207.88 76.7893 208.735 76.7893 210.238L76.7947 210.432L63.3778 212.112L63.3765 212.113ZM78.8682 202.508L59.1696 212.641L36.5945 215.468L72.8645 196.531C73.1154 196.4 73.2572 196.163 73.2585 195.919L76.9706 197.854C77.2828 199.001 77.9753 200.166 78.8682 201.069V202.507V202.508ZM189.003 499.912L207.344 468.963L218.828 507.726L189.003 499.912ZM205.708 463.439L177.517 451.341L192.844 420.012L205.708 463.439ZM175.383 450.424L148.77 439.002C148.764 438.939 148.753 438.877 148.736 438.816L165.834 406.882L191.868 416.716L191.87 416.723L175.383 450.425V450.424ZM166.863 404.959L180.719 379.08L191.097 414.113L166.863 404.959ZM179.454 374.81L156.931 367.236L162.112 358.119L176.936 365.845C176.901 366.028 176.907 366.22 176.965 366.411L179.453 374.812L179.454 374.81ZM154.703 366.486L137.003 360.533C136.968 360.402 136.927 360.269 136.88 360.136L151.466 352.568L153.148 353.445C153.371 353.914 153.888 354.241 154.491 354.241C154.548 354.241 154.604 354.237 154.66 354.232L160.065 357.049L154.703 366.485V366.486ZM137.024 362.815L153.617 368.396L140.507 391.467L135.742 364.046C136.343 363.887 136.797 363.461 137.022 362.815H137.024ZM155.846 369.146L179.207 377.003L164.681 404.136L141.165 395.254L141.128 395.044L155.846 369.146ZM163.651 406.058L148.092 435.121L141.594 397.727L163.651 406.058ZM149.209 441.551L174.429 452.376L157.207 487.58L149.209 441.552V441.551ZM176.564 453.291L206.372 466.085L186.685 499.305L158.218 491.846C158.178 491.656 158.094 491.473 157.963 491.312L176.563 453.293L176.564 453.291ZM185.548 501.226L165.466 535.111L158.34 494.097L185.548 501.226ZM163.188 356.231L166.946 349.617L180.118 365.054L163.189 356.23L163.188 356.231ZM165.481 347.901C165.29 347.999 165.128 348.148 165.019 348.339L161.14 355.164L155.953 352.46V350.243L163.665 346.242C163.759 346.192 163.844 346.133 163.916 346.067L165.48 347.899L165.481 347.901ZM136.785 226.137L150.481 219.139V230.359L147.249 232.037L136.972 226.68C136.919 226.499 136.856 226.317 136.785 226.136V226.137ZM150.481 216.689L135.694 224.243C135.483 223.971 135.251 223.714 135.007 223.475V196.294L150.778 214.78C150.778 214.837 150.783 214.893 150.791 214.95C150.596 215.174 150.481 215.456 150.481 215.764V216.689ZM149.613 233.269L150.481 232.818V233.72L149.613 233.269ZM153.401 231.303L161.078 227.321C161.172 227.273 161.256 227.214 161.33 227.146L180.117 249.166L153.401 235.243V231.303ZM159.898 225.472L153.4 228.844V217.856L159.898 225.472ZM144.896 233.256L135.765 237.993C135.534 237.687 135.279 237.398 135.007 237.132V230.375C135.948 230.438 136.679 229.993 137.002 229.142L144.896 233.256ZM136.882 289.499L154.574 280.322V298.029L153.745 298.46L136.95 289.706L136.882 289.499ZM157.495 278.807L163.33 275.781C163.425 275.73 163.51 275.671 163.583 275.604L174.11 287.896L157.495 296.514V278.807ZM162.151 273.93L157.495 276.344V268.494L162.151 273.93ZM154.574 277.861L135.863 287.567C135.606 287.213 135.318 286.878 135.009 286.575V244.032C135.501 244.065 135.936 243.958 136.285 243.727L154.574 265.083V277.861ZM157.495 298.974L175.569 289.599L181.127 296.087C180.936 296.31 180.824 296.588 180.824 296.892V312.574L157.194 300.258C157.382 300.035 157.495 299.757 157.495 299.455V298.974ZM151.391 299.682L136.062 307.633C135.757 307.172 135.401 306.737 135.009 306.354V293.478C135.967 293.542 136.709 293.078 137.022 292.193L151.391 299.682ZM136.86 342.174L153.033 333.784V349.299L151.457 350.116L136.989 342.574C136.951 342.44 136.909 342.307 136.861 342.173L136.86 342.174ZM151.858 331.933L135.823 340.252C135.576 339.917 135.303 339.603 135.009 339.317V313.255C135.31 313.274 135.589 313.242 135.842 313.161L151.858 331.933ZM162.49 344.393H162.489L155.955 347.784V336.735L162.49 344.394V344.393ZM149.104 351.337L135.866 358.205C135.608 357.849 135.319 357.515 135.01 357.212V346.218C135.936 346.28 136.66 345.848 136.989 345.022L149.104 351.337ZM154.223 487.412L108.799 440.148L146.062 440.433L154.223 487.412ZM106.245 437.49L67.4798 397.156L105.454 397.002L144.122 437.78L106.245 437.488V437.49ZM109.285 396.986L138.492 396.868L145.069 434.723L109.285 396.985V396.986ZM137.521 391.277L109.789 361.619L131.004 361.262C131.447 361.944 132 362.565 132.619 363.057L137.521 391.277ZM107.361 359.022L86.8404 337.078L91.7466 339.635L128.266 358.67L107.361 359.022ZM82.3908 336.409L103.596 359.085L74.9516 359.569L80.8272 336.165C81.3984 336.399 81.93 336.475 82.3908 336.409ZM106.025 361.683L136.469 394.239L106.794 394.358L76.2849 362.182L106.025 361.682V361.683ZM102.963 394.374L66.1779 394.522L73.9074 363.732L102.963 394.374ZM65.1228 398.727L102.348 437.459L55.4916 437.099L65.1241 398.727H65.1228ZM104.902 440.116L153.062 490.226L105.544 483.481L57.3306 439.752L104.902 440.117V440.116ZM100.657 482.787L45.9694 475.024L54.525 440.944L100.657 482.787ZM109.032 486.644L155.231 493.202L162.52 535.158L109.032 486.644ZM59.4368 249.304C59.5731 249.176 59.6562 249.003 59.6562 248.811V214.72L77.3373 212.506C77.7054 213.312 78.2384 214.085 78.8723 214.727V257.361C78.0271 257.337 77.3605 257.733 77.0278 258.473L59.4381 249.304H59.4368ZM58.0831 214.917V248.599L32.1626 235.089C32.299 234.961 32.3835 234.787 32.3835 234.595V218.348C32.3835 218.275 32.3712 218.205 32.348 218.14L58.0831 214.917ZM30.809 218.333V218.349V234.384L5.98186 221.443L30.809 218.333ZM183.444 313.939C183.634 313.716 183.745 313.438 183.745 313.135V299.144L206.875 326.151L183.444 313.938V313.939ZM61.0208 302.98V284.573L77.6917 282.41C78.0175 282.965 78.4183 283.491 78.8709 283.949V310.102C77.993 310.076 77.3073 310.505 76.9883 311.302L61.0208 302.98ZM59.4463 284.777V302.16L32.7393 288.24L59.4463 284.777ZM60.3378 186.738V168.775L78.8723 166.372V194.263C78.0066 194.237 77.3305 194.653 77.0047 195.424L60.3378 186.738ZM58.7633 168.98V185.917L32.7393 172.354L58.7633 168.98ZM83.5918 332.003L99.0631 325.254L114.023 333.051L129.846 356.445L83.7554 332.422C83.7063 332.282 83.6518 332.142 83.5932 332.003H83.5918ZM101.618 324.14L106.543 321.992L111.468 329.274L101.618 324.14ZM108.655 321.071L131.511 311.101C131.692 311.323 131.886 311.534 132.087 311.732V337.793C131.162 337.732 130.438 338.163 130.108 338.989L115.693 331.476L108.655 321.071ZM132.087 304.004L121.051 283.868L130.074 288.571C130.387 289.782 131.129 291.019 132.087 291.954V304.004ZM119.172 280.44L108.435 260.852L132.001 242.425L132.089 242.511V285.054C131.197 284.995 130.494 285.392 130.147 286.16L119.173 280.44H119.172ZM107.365 258.901L83.6272 215.595C83.8767 215.247 84.0294 214.788 84.0594 214.23L129.917 238.131C129.958 238.953 130.241 239.837 130.691 240.662L107.365 258.901ZM84.2543 211.882L95.8254 207.681L117.204 218.823L128.796 235.099L84.2543 211.882ZM98.5914 206.676L106.505 203.803L114.432 214.933L98.5914 206.676ZM108.709 203.003L132.087 194.515V221.954C131.175 221.894 130.461 222.311 130.123 223.111L118.845 217.233L108.708 203.003H108.709ZM130.142 192.949L107.424 201.197L84.6646 169.245L130.142 192.948V192.949ZM105.219 201.997L96.0217 205.336L83.8522 198.993C83.5032 197.799 82.7493 196.596 81.7923 195.695V169.109L105.219 201.996V201.997ZM93.2557 206.34L82.5789 210.217C82.3376 209.908 82.0732 209.618 81.7923 209.352V202.682C82.7779 202.782 83.5495 202.334 83.8835 201.456L93.2557 206.34ZM81.7923 216.998L105.541 260.325L95.5582 268.131L83.8304 262.018C83.4718 260.85 82.7302 259.678 81.7923 258.795V216.997V216.998ZM106.611 262.277L115.525 278.539L97.6971 269.246L106.611 262.277ZM117.404 281.966L130.348 305.582C130.303 305.644 130.262 305.709 130.224 305.78L83.7513 281.558C83.6286 281.206 83.4705 280.855 83.2851 280.515L95.8172 270.717L117.404 281.967V281.966ZM130.385 309.251L107.433 319.263L83.8563 284.403C83.8944 284.311 83.9285 284.213 83.9571 284.11L130.021 308.12C130.101 308.496 130.224 308.876 130.385 309.25V309.251ZM105.322 320.185L99.1749 322.865L83.8699 314.888C83.5291 313.677 82.7657 312.45 81.7937 311.535V285.56L81.9123 285.57L105.323 320.183L105.322 320.185ZM96.6202 323.98L82.4685 330.153C82.2586 329.896 82.0323 329.652 81.7937 329.428V318.522C82.7657 318.62 83.5277 318.188 83.8699 317.333L96.6202 323.979V323.98ZM132.07 355.687L118.249 335.253L130.108 341.435C130.439 342.605 131.162 343.791 132.087 344.695V355.688L132.068 355.687H132.07ZM131.932 235.603L121.618 221.123L130.094 225.541C130.417 226.729 131.149 227.937 132.089 228.854V235.609L131.932 235.603ZM93.681 269.602L81.9777 278.753L81.7951 278.574V265.784C82.7998 265.886 83.5809 265.42 83.9053 264.507L93.6824 269.603L93.681 269.602ZM225.156 229.383L225.104 229.295L225.085 229.268L225.156 229.383Z" fill="#322A78" fill-opacity="0.13"/>
<path d="M448.303 186.002C448.298 185.717 448.195 185.434 447.992 185.197L447.611 184.751L461.757 177.291L444.931 239.885L444.637 240.038L412.968 202.98L441.039 187.813C441.742 189.934 443.405 192.036 445.347 193.051C447.922 194.394 450.011 193.317 450.011 190.644C450.011 189.134 449.345 187.438 448.301 186.005L448.303 186.002ZM409.97 286.444L424.17 257.198C424.226 257.081 424.254 256.957 424.254 256.837L432.175 260.975V274.747L409.968 286.444H409.97ZM422.736 256.043C422.558 256.137 422.409 256.281 422.32 256.466L407.631 286.717L385.894 261.186C385.905 261.058 385.91 260.927 385.91 260.791C385.91 260.241 385.821 259.665 385.658 259.088L407.16 247.911L422.735 256.045L422.736 256.043ZM490.064 306.51L412.036 289.276L434.435 277.476L490.064 306.508V306.51ZM411.272 290.992L492.601 308.95L446.751 332.664L411.272 290.992ZM424.666 176.624C424.922 176.624 425.159 176.537 425.339 176.39L432.176 179.961V188.653L410.735 200.239L410.594 200.196L386.962 172.543L424.542 176.617L424.665 176.624H424.666ZM421.653 174.463L385.772 170.574C385.695 170.22 385.59 169.861 385.457 169.505L398.838 162.548L421.653 174.465V174.463ZM463.396 178.936L493.928 214.308L447.354 238.621L463.396 178.937V178.936ZM527.605 257.054L447.6 243.499L446.953 242.743L496.256 217.006L529.226 255.204C528.53 255.49 528.025 256.088 527.803 256.951L527.605 257.054ZM449.457 245.672L524.91 258.458L480.248 281.702L449.457 245.672ZM492.047 156.19L409.099 137.16L456.909 112.29L493.099 154.87C492.623 155.146 492.26 155.596 492.047 156.19ZM408.62 138.952L491.131 157.881L445.31 182.044L408.62 138.95V138.952ZM407.618 134.019L434.092 85.4469L454.601 109.576L407.618 134.019ZM431.578 85.8913L404.986 134.681L383.919 109.935L431.58 85.8897L431.578 85.8913ZM426.301 80.4651L366.56 69.048L373.982 53.7404L426.301 80.4651ZM374.799 52.0576L397.582 5.07513L431.435 80.9886L374.799 52.0592V52.0576ZM391.903 12.2015L373.018 51.1467L366.747 47.9441L391.903 12.2015ZM372.203 52.831L365.049 67.5851L358.641 52.5954L365.233 49.2694L372.205 52.831H372.203ZM366.472 70.9158L430.717 83.19L382.188 107.674L366.472 70.9158ZM435.209 181.544V187.014L440.358 184.232L435.209 181.544ZM435.209 262.558V273.151L445.307 267.832L435.209 262.558ZM491.173 304.979L436.451 276.418L448.771 269.928C448.861 269.88 448.943 269.828 449.02 269.771L474.723 283.197C474.485 283.654 474.352 284.226 474.352 284.898C474.352 287.571 476.439 290.829 479.014 292.175C479.567 292.463 480.095 292.64 480.586 292.714L491.171 304.981L491.173 304.979ZM280.328 109.934L280.434 109.927L295.377 108.509L302.428 112.191L251.627 138.771L216.617 143.166L280.142 109.919C280.202 109.929 280.265 109.935 280.328 109.935V109.934ZM292.4 106.954L280.225 108.11C280.102 108.123 279.987 108.153 279.884 108.199C279.653 108.159 279.406 108.192 279.19 108.305L211.884 143.533C211.643 143.658 211.482 143.861 211.416 144.085C210.542 144.509 210 145.456 210 146.818C210 149.491 212.087 152.749 214.664 154.095C217.239 155.441 219.328 154.364 219.328 151.691C219.328 151.019 219.197 150.31 218.957 149.605L308.245 196.243L244.456 229.466C243.97 229.717 243.806 230.275 244.083 230.71C244.19 230.878 244.346 231.005 244.524 231.08C244.414 231.435 244.356 231.836 244.356 232.284C244.356 234.957 246.443 238.215 249.018 239.562C251.593 240.905 253.681 239.828 253.681 237.155C253.681 236.632 253.6 236.086 253.452 235.536L308.719 264.403C309.126 265.855 310.008 267.324 311.135 268.468V282.711C309.56 282.665 308.469 283.763 308.469 285.694C308.469 287.324 309.245 289.172 310.436 290.671L290.792 369.099L290.733 369.208C290.607 369.46 290.553 369.728 290.568 369.994L265.059 471.843C264.806 472.085 264.626 472.397 264.565 472.751C264.517 473.025 264.545 473.293 264.633 473.54L256.876 504.506C256.646 505.419 257.278 506.327 258.287 506.534C259.292 506.743 260.299 506.17 260.526 505.258L268.113 474.971L343.542 485.7L419.389 554.643L426.138 593.569C426.282 594.405 427.079 595 427.986 595L428.278 594.981C429.301 594.836 430 593.967 429.837 593.042L423 553.602L422.999 553.596L422.992 553.554L422.99 553.551L422.958 553.368L450.904 506.11L491.524 516.776L502.808 554.949C503.034 555.708 503.791 556.207 504.616 556.207L505.102 556.15C506.102 555.909 506.694 554.979 506.427 554.075L443.349 340.685C443.908 341.223 444.522 341.68 445.167 342.017C447.74 343.363 449.829 342.283 449.829 339.61C449.829 338.326 449.347 336.907 448.562 335.631L494.931 311.647C495.772 313.348 497.177 314.911 498.768 315.741C501.343 317.087 503.43 316.01 503.43 313.336C503.43 311.523 502.471 309.442 501.05 307.872C501.16 307.465 501.104 307.022 500.855 306.63C500.373 305.871 499.343 305.578 498.478 305.92C497.707 305.566 496.989 305.433 496.366 305.498L483.579 290.682C483.638 290.402 483.671 290.1 483.671 289.771C483.671 288.474 483.18 287.038 482.379 285.751C482.677 285.36 482.726 284.859 482.516 284.432L528.247 260.627C529.041 262.539 530.574 264.353 532.336 265.275C534.911 266.621 537 265.544 537 262.869C537 260.935 535.907 258.696 534.327 257.097L534.341 257.071L534.343 257.067L534.392 256.953L534.406 256.918L534.408 256.913L534.42 256.878L534.421 256.874C534.442 256.809 534.458 256.746 534.472 256.679V256.674L534.479 256.638V256.633C534.549 256.194 534.43 255.727 534.103 255.349L465.172 175.487L492.776 160.929C493.627 162.54 494.978 164 496.497 164.794C499.072 166.14 501.16 165.063 501.16 162.39C501.16 160.619 500.244 158.591 498.875 157.033L498.877 157.025L498.882 156.997L498.884 156.984L498.889 156.956L498.891 156.943L498.894 156.915L498.896 156.904L498.899 156.875L498.901 156.864L498.903 156.836L498.905 156.824L498.906 156.796L498.908 156.785L498.91 156.755V156.744V156.714V156.703L498.908 156.674L498.906 156.663L498.905 156.633L498.903 156.622L498.901 156.592L498.899 156.581L498.896 156.551L498.894 156.541L498.891 156.51L498.889 156.5L498.884 156.469L498.882 156.459L498.873 156.418L498.866 156.386L498.864 156.377L498.856 156.345L498.854 156.337L498.845 156.304L498.842 156.296L498.833 156.265L498.829 156.257L498.819 156.224L498.815 156.217L498.803 156.182L498.8 156.178L498.787 156.143L498.784 156.138L498.77 156.103L498.768 156.099L498.752 156.064L498.751 156.061L498.733 156.024L498.731 156.021L498.714 155.985L498.712 155.983C498.686 155.933 498.655 155.883 498.621 155.834L498.62 155.831L498.595 155.796L498.593 155.793L498.511 155.689V155.687L498.483 155.654L498.48 155.649L435.954 82.0814L399.839 1.09758L399.83 1.07702L399.829 1.07386L399.82 1.05646L399.809 1.03432L399.801 1.01851L399.789 0.994782L399.78 0.978967L399.768 0.955244L399.759 0.939429L399.747 0.915706L399.736 0.89989L399.724 0.877749L399.713 0.861934L399.689 0.823977L399.675 0.803417L399.663 0.787602L399.65 0.768624L399.636 0.751227L399.624 0.73383L399.61 0.716433L399.596 0.699036L399.58 0.681639L399.568 0.665824L399.553 0.648427L399.54 0.634193L399.523 0.616797L399.493 0.585166L399.481 0.570932L399.462 0.553535L399.449 0.540883L399.43 0.523486L399.416 0.510834L399.397 0.493437L399.385 0.480785L399.364 0.463388L399.351 0.452318L399.331 0.434921L399.317 0.42385L399.296 0.408035L399.283 0.396964L399.261 0.381149L399.247 0.371659L399.224 0.355844L399.21 0.346355L399.187 0.33054L399.173 0.321051L399.149 0.306817L399.136 0.298909L399.112 0.284675L399.098 0.276768L399.074 0.262534L399.061 0.254626L399.035 0.240393L399.021 0.232485L398.995 0.219833L398.981 0.213507L398.955 0.200854L398.941 0.194528L398.914 0.183457L398.9 0.177131L398.874 0.166061L398.86 0.159735L398.834 0.148664L398.75 0.117033L398.736 0.112289L398.708 0.102799L398.692 0.0980548L398.664 0.0901472L398.649 0.0854026L398.621 0.077495L398.577 0.0664243L398.561 0.0616797L398.533 0.0553535L398.518 0.050609L398.49 0.0442828L398.474 0.0411198L398.446 0.0363752L398.43 0.0332121L398.402 0.0284675L398.359 0.0221414L398.341 0.0189784L398.313 0.0158153L398.224 0.00790765L398.206 0.00632612L398.18 0.00474459L398.163 0.00316306L398.135 0.00158153L398.117 0H398.091H398.072L398.046 0.00158153H398.026L398 0.00316306H397.981L397.955 0.00474459L397.935 0.00632612L397.911 0.00948918L397.89 0.0110707L397.866 0.0142338L397.845 0.0173968L397.82 0.0205599L397.799 0.0237229L397.775 0.026886L397.754 0.0316306L397.731 0.0363752L397.708 0.0411198L397.686 0.0458644L397.663 0.050609L397.64 0.0553535L397.617 0.0616797L397.596 0.0664243L397.572 0.0727504C397.432 0.109126 397.292 0.159735 397.161 0.229322L345.967 26.7864C345.124 27.2245 344.801 28.1655 345.191 28.9515L331.704 46.4068L312.918 45.964H312.909C312.731 45.9608 312.549 46.0004 312.387 46.0874L246.505 80.5695C244.751 80.3512 243.508 81.463 243.508 83.5269C243.508 86.2013 245.596 89.4576 248.171 90.8035C250.746 92.1494 252.835 91.0724 252.835 88.398C252.835 87.6389 252.665 86.8323 252.364 86.0352L292.39 106.94L292.4 106.954ZM364.875 47.2023L356.246 46.9999L348.68 29.3057L394.027 5.78207L364.873 47.2023H364.875ZM353.003 46.9224L335.296 46.5049L346.58 31.8995L353.003 46.9224ZM313.158 47.8097L330.324 48.2161L326.489 53.1805L326.475 53.1979L326.461 53.2153L326.433 53.2517L326.419 53.2707L324.671 55.5338L286.093 75.5133L251.691 79.9827L313.161 47.8097H313.158ZM333.91 48.2999L351.239 48.7095L330.994 52.0719L333.908 48.2983L333.91 48.2999ZM357.038 48.8471L361.707 48.9578L357.905 50.8762L357.038 48.8471ZM248.868 229.274L309.181 197.862C309.651 198.888 310.331 199.875 311.139 200.695V211.397L286.791 223.951C286.584 224.058 286.434 224.221 286.353 224.408L248.868 229.276V229.274ZM316.708 73.7499L335.627 64.2069L374.086 103.721L316.708 73.7499ZM338.298 62.8579L355.999 53.927L376.676 102.287L338.298 62.8579ZM355.265 52.2079L336.932 61.4567L330.548 54.8981L354.699 50.8857L355.263 52.2063L355.265 52.2079ZM334.259 62.8057L315.322 72.3597L327.818 56.187L334.259 62.8057ZM291.208 223.777L311.137 213.502V217.359C309.562 217.312 308.471 218.411 308.471 220.345C308.471 220.728 308.515 221.122 308.595 221.52L291.208 223.779V223.777ZM291.514 74.8095L321.96 59.0433L311.817 72.1715L291.516 74.8095H291.514ZM291.271 133.796L311.137 123.554V128.403C309.562 128.355 308.471 129.455 308.471 131.386L308.478 131.635L291.273 133.794L291.271 133.796ZM311.137 121.452L285.876 134.474L256.927 138.107L303.438 113.771C303.76 113.603 303.942 113.298 303.943 112.984L308.703 115.471C309.104 116.945 309.992 118.442 311.137 119.603V121.45V121.452ZM452.369 503.645L475.889 463.872L490.615 513.687L452.369 503.645ZM473.791 456.774L437.639 441.226L457.294 400.965L473.791 456.774ZM434.903 440.048L400.776 425.37C400.767 425.289 400.753 425.209 400.733 425.131L422.658 384.092L456.042 396.73L456.045 396.739L434.903 440.05V440.048ZM423.978 381.622L441.746 348.364L455.054 393.385L423.978 381.622ZM440.123 342.877L411.241 333.143L417.885 321.427L436.895 331.356C436.849 331.591 436.858 331.838 436.931 332.083L440.122 342.879L440.123 342.877ZM408.384 332.18L385.686 324.53C385.641 324.361 385.588 324.19 385.529 324.019L404.232 314.294L406.389 315.42C406.676 316.023 407.339 316.444 408.111 316.444C408.185 316.444 408.257 316.439 408.328 316.432L415.26 320.053L408.384 332.178V332.18ZM385.712 327.462L406.991 334.634L390.179 364.283L384.069 329.044C384.84 328.84 385.422 328.292 385.711 327.462H385.712ZM409.849 335.597L439.807 345.696L421.179 380.564L391.023 369.15L390.976 368.879L409.849 335.597ZM419.859 383.034L399.906 420.382L391.574 372.327L419.859 383.034ZM401.339 428.645L433.68 442.556L411.595 487.798L401.339 428.647V428.645ZM436.417 443.733L474.642 460.175L449.395 502.865L412.891 493.279C412.84 493.036 412.732 492.8 412.564 492.593L436.416 443.735L436.417 443.733ZM447.938 505.334L422.186 548.879L413.048 496.172L447.938 505.334ZM419.265 319.001L424.084 310.502L440.975 330.339L419.266 318.999L419.265 319.001ZM422.205 308.296C421.96 308.422 421.752 308.613 421.612 308.859L416.639 317.63L409.987 314.155V311.305L419.876 306.164C419.997 306.1 420.105 306.024 420.198 305.939L422.203 308.294L422.205 308.296ZM385.407 151.817L402.97 142.825V157.244L398.825 159.399L385.646 152.515C385.578 152.282 385.497 152.048 385.407 151.816V151.817ZM402.97 139.676L384.008 149.383C383.737 149.034 383.44 148.703 383.127 148.397V113.467L403.351 137.223C403.351 137.296 403.356 137.369 403.367 137.441C403.117 137.729 402.97 138.091 402.97 138.487V139.676ZM401.857 160.982L402.97 160.404V161.563L401.857 160.982ZM406.715 158.457L416.558 153.339C416.679 153.277 416.787 153.201 416.882 153.114L440.973 181.413L406.715 163.519V158.457ZM415.048 150.963H415.046L406.713 155.297V141.175L415.046 150.963H415.048ZM395.808 160.967L384.099 167.054C383.802 166.66 383.475 166.288 383.127 165.947V157.264C384.333 157.345 385.27 156.772 385.685 155.679L395.808 160.967ZM385.531 233.244L408.218 221.451V244.206L407.155 244.759L385.618 233.51L385.531 233.244ZM411.964 219.504L419.446 215.615C419.569 215.55 419.677 215.474 419.772 215.387L433.271 231.183L411.964 242.259V219.504ZM417.934 213.236L411.964 216.339V206.25L417.934 213.236ZM408.218 218.287L384.225 230.761C383.894 230.306 383.526 229.875 383.129 229.486V174.814C383.76 174.857 384.317 174.72 384.765 174.422L408.218 201.866V218.287ZM411.964 245.42L435.141 233.372L442.268 241.71C442.024 241.996 441.88 242.354 441.88 242.744V262.898L411.578 247.07C411.819 246.783 411.964 246.426 411.964 246.039V245.42ZM404.136 246.33L384.48 256.548C384.088 255.955 383.632 255.397 383.129 254.905V238.357C384.358 238.439 385.309 237.843 385.711 236.706L404.136 246.33ZM385.503 300.937L406.243 290.154V310.092L404.222 311.142L385.669 301.451C385.62 301.278 385.566 301.107 385.504 300.935L385.503 300.937ZM404.736 287.775L384.172 298.466C383.856 298.036 383.506 297.633 383.129 297.264V263.772C383.515 263.798 383.873 263.756 384.197 263.652L404.736 287.775ZM418.369 303.788H418.368L409.989 308.145V293.946L418.369 303.79V303.788ZM401.205 312.711L384.228 321.538C383.898 321.081 383.527 320.65 383.131 320.261V306.134C384.317 306.213 385.246 305.658 385.669 304.596L401.205 312.711ZM407.769 487.581L349.519 426.842L397.303 427.209L407.769 487.581ZM346.243 423.426L296.533 371.593L345.229 371.395L394.815 423.799L346.243 423.425V423.426ZM350.141 371.375L387.595 371.223L396.03 419.871L350.141 371.373V371.375ZM386.351 364.038L350.788 325.925L377.993 325.466C378.561 326.342 379.271 327.141 380.064 327.774L386.351 364.038ZM347.675 322.588L321.36 294.388L327.652 297.674L374.482 322.135L347.675 322.588ZM315.654 293.527L342.846 322.668L306.114 323.29L313.649 293.214C314.381 293.515 315.063 293.613 315.654 293.527ZM345.962 326.007L385.001 367.845L346.948 367.998L307.824 326.649L345.962 326.005V326.007ZM342.035 368.019L294.863 368.209L304.775 328.64L342.035 368.019ZM293.51 373.613L341.247 423.387L281.16 422.925L293.512 373.613H293.51ZM344.521 426.801L406.279 491.198L345.344 482.53L283.518 426.333L344.521 426.803V426.801ZM339.077 481.638L268.949 471.661L279.92 427.866L339.077 481.638ZM349.818 486.594L409.061 495.022L418.408 548.94L349.818 486.594ZM286.219 181.59C286.394 181.425 286.5 181.202 286.5 180.955V137.146L309.174 134.3C309.646 135.336 310.329 136.329 311.142 137.155V191.944C310.058 191.912 309.203 192.422 308.777 193.372L286.221 181.59H286.219ZM284.483 137.399V180.683L251.244 163.321C251.419 163.157 251.527 162.934 251.527 162.687V141.808C251.527 141.715 251.511 141.624 251.482 141.541L284.483 137.399ZM249.508 141.789V141.809V162.415L217.671 145.785L249.508 141.789ZM445.24 264.652C445.483 264.365 445.626 264.008 445.626 263.619V245.638L475.287 280.345L445.24 264.65V264.652ZM288.25 250.568V226.913L309.628 224.134C310.046 224.848 310.56 225.523 311.14 226.111V259.72C310.015 259.687 309.135 260.239 308.726 261.262L288.25 250.568ZM286.231 227.176V249.515L251.983 231.626L286.231 227.176ZM287.374 101.186V78.1023L311.142 75.0135V110.856C310.032 110.823 309.165 111.357 308.747 112.349L287.374 101.186ZM285.355 78.3648V100.131L251.983 82.7014L285.355 78.3648ZM317.194 287.865L337.034 279.192L356.218 289.213L376.509 319.276L317.404 288.405C317.341 288.224 317.271 288.044 317.196 287.865H317.194ZM340.31 277.761L346.626 275.001L352.942 284.359L340.31 277.761ZM349.334 273.817L378.643 261.005C378.876 261.289 379.124 261.561 379.382 261.816V295.306C378.195 295.227 377.267 295.782 376.844 296.844L358.359 287.188L349.334 273.817ZM379.382 251.884L365.23 226.007L376.8 232.052C377.203 233.608 378.154 235.197 379.382 236.399V251.884ZM362.821 221.602L349.052 196.429L379.272 172.749L379.384 172.86V227.532C378.241 227.456 377.339 227.966 376.895 228.953L362.822 221.602H362.821ZM347.68 193.922L317.24 138.27C317.56 137.822 317.755 137.233 317.794 136.516L376.599 167.231C376.652 168.287 377.016 169.423 377.592 170.484L347.68 193.922ZM318.044 133.499L332.882 128.099L360.296 142.418L375.162 163.334L318.044 133.499ZM336.429 126.809L346.577 123.116L356.742 137.419L336.429 126.809ZM349.404 122.088L379.382 111.18V146.442C378.213 146.364 377.297 146.9 376.863 147.928L362.401 140.375L349.402 122.088H349.404ZM376.888 109.168L347.755 119.768L318.57 78.7064L376.888 109.167V109.168ZM344.928 120.796L333.134 125.086L317.528 116.935C317.081 115.401 316.114 113.854 314.887 112.697V78.5309L344.928 120.794V120.796ZM329.587 126.377L315.895 131.359C315.586 130.962 315.247 130.589 314.887 130.247V121.675C316.151 121.805 317.14 121.229 317.568 120.1L329.587 126.377ZM314.887 140.073L345.341 195.752L332.539 205.784L317.5 197.928C317.04 196.428 316.089 194.92 314.887 193.786V140.071V140.073ZM346.713 198.261L358.144 219.159L335.282 207.217L346.713 198.261ZM360.553 223.563L377.152 253.911C377.094 253.992 377.042 254.076 376.993 254.166L317.399 223.038C317.241 222.586 317.039 222.135 316.801 221.699L332.871 209.107L360.553 223.565V223.563ZM377.199 258.628L347.767 271.493L317.533 226.695C317.582 226.576 317.626 226.451 317.663 226.318L376.732 257.174C376.835 257.657 376.993 258.145 377.199 258.626V258.628ZM345.06 272.678L337.177 276.122L317.551 265.871C317.114 264.315 316.135 262.738 314.888 261.563V228.182L315.04 228.194L345.061 272.676L345.06 272.678ZM333.901 277.555L315.754 285.488C315.484 285.158 315.194 284.845 314.888 284.557V270.541C316.135 270.668 317.112 270.113 317.551 269.013L333.901 277.554V277.555ZM379.36 318.302L361.637 292.042L376.844 299.986C377.269 301.49 378.195 303.015 379.382 304.176V318.303L379.358 318.302H379.36ZM379.183 163.982L365.957 145.374L376.827 151.052C377.241 152.578 378.18 154.131 379.384 155.309V163.99L379.183 163.982ZM330.132 207.674L315.124 219.434L314.89 219.205V202.768C316.178 202.899 317.18 202.3 317.596 201.126L330.134 207.675L330.132 207.674ZM498.73 155.989L498.663 155.876L498.639 155.841L498.73 155.989Z" fill="#322A78" fill-opacity="0.13"/>
</svg>
