<svg width="329" height="51" viewBox="0 0 329 51" fill="none" xmlns="http://www.w3.org/2000/svg">
<path d="M29.7332 0.319996L22.7492 50H9.28519L16.2692 0.319996H29.7332ZM43.9892 0.319996L42.5492 10.616H0.573188L2.01319 0.319996H43.9892ZM62.8099 0.319996L55.8259 50H42.2899L49.2739 0.319996H62.8099ZM123.694 0.319996C125.278 0.319996 126.454 0.775997 127.222 1.688C128.038 2.552 128.374 3.776 128.23 5.36L123.694 50H111.454L115.486 10.544H114.406L104.254 38.696C103.822 40.088 103.15 41.096 102.238 41.72C101.374 42.296 100.198 42.584 98.7103 42.584H91.2943C89.8543 42.584 88.7023 42.2 87.8383 41.432C87.0223 40.664 86.5423 39.584 86.3983 38.192L83.9503 10.544H82.7263L75.8863 50H63.5743L71.7103 4.856C71.9983 3.272 72.5263 2.12 73.2943 1.4C74.0623 0.679997 75.2143 0.319996 76.7503 0.319996H88.5583C89.9983 0.319996 91.1263 0.703997 91.9423 1.472C92.8063 2.24 93.2623 3.344 93.3103 4.784L95.1823 26.888C95.3263 28.088 95.3743 29.288 95.3263 30.488C95.3263 31.688 95.3023 32.912 95.2543 34.16H96.1183C96.4543 32.816 96.7903 31.592 97.1263 30.488C97.4623 29.336 97.7983 28.184 98.1343 27.032L105.91 4.28C106.294 2.888 106.942 1.88 107.854 1.256C108.766 0.631996 109.942 0.319996 111.382 0.319996H123.694ZM148.798 0.103999C151.63 0.103999 154.486 0.127998 157.366 0.175998C160.246 0.175998 163.03 0.247998 165.718 0.391999C168.406 0.487998 170.854 0.679997 173.062 0.967996L171.55 10.544H153.694C152.398 10.544 151.438 10.784 150.814 11.264C150.238 11.744 149.854 12.608 149.662 13.856L146.494 36.536C146.35 37.592 146.518 38.408 146.998 38.984C147.478 39.512 148.318 39.776 149.518 39.776H167.23L167.014 49.496C164.758 49.784 162.286 49.952 159.598 50C156.958 50.096 154.246 50.144 151.462 50.144C148.726 50.192 146.11 50.216 143.614 50.216C139.63 50.216 136.702 49.04 134.83 46.688C133.006 44.336 132.334 41.288 132.814 37.544L136.558 10.544C137.038 7.328 138.31 4.784 140.374 2.912C142.486 1.04 145.294 0.103999 148.798 0.103999ZM136.63 19.832H167.518L166.366 28.976H135.19L136.63 19.832ZM193.516 0.319996L188.332 35.96C188.236 37.064 188.38 37.88 188.764 38.408C189.196 38.936 190.012 39.2 191.212 39.2H207.988L207.772 49.424C204.508 49.808 200.86 50.024 196.828 50.072C192.844 50.168 188.884 50.216 184.948 50.216C182.644 50.216 180.652 49.76 178.972 48.848C177.34 47.888 176.116 46.568 175.3 44.888C174.484 43.16 174.244 41.168 174.58 38.912L179.98 0.319996H193.516ZM232.755 0.319996L225.771 50H212.235L219.219 0.319996H232.755ZM284.856 0.319996L278.52 45.536C278.328 47.072 277.824 48.2 277.008 48.92C276.24 49.64 275.088 50 273.552 50H268.224C266.784 50 265.752 49.64 265.128 48.92C264.504 48.152 263.904 47.096 263.328 45.752L253.968 24.584C253.44 23.48 252.984 22.256 252.6 20.912C252.216 19.568 251.88 18.2 251.592 16.808H250.872C250.92 18.248 250.896 19.688 250.8 21.128C250.752 22.52 250.632 23.96 250.44 25.448L246.912 50H234.384L240.72 4.784C240.912 3.248 241.392 2.12 242.16 1.4C242.976 0.679997 244.152 0.319996 245.688 0.319996H251.016C252.408 0.319996 253.416 0.703997 254.04 1.472C254.664 2.24 255.264 3.272 255.84 4.568L264.984 24.8C265.512 26 266.016 27.272 266.496 28.616C267.024 29.96 267.48 31.448 267.864 33.08H268.656C268.56 31.544 268.512 30.152 268.512 28.904C268.56 27.608 268.68 26.288 268.872 24.944L272.4 0.319996H284.856ZM303.837 0.103999C306.669 0.103999 309.525 0.127998 312.405 0.175998C315.285 0.175998 318.069 0.247998 320.757 0.391999C323.445 0.487998 325.893 0.679997 328.101 0.967996L326.589 10.544H308.733C307.437 10.544 306.477 10.784 305.853 11.264C305.277 11.744 304.893 12.608 304.701 13.856L301.533 36.536C301.389 37.592 301.557 38.408 302.037 38.984C302.517 39.512 303.357 39.776 304.557 39.776H322.269L322.053 49.496C319.797 49.784 317.325 49.952 314.637 50C311.997 50.096 309.285 50.144 306.501 50.144C303.765 50.192 301.149 50.216 298.653 50.216C294.669 50.216 291.741 49.04 289.869 46.688C288.045 44.336 287.373 41.288 287.853 37.544L291.597 10.544C292.077 7.328 293.349 4.784 295.413 2.912C297.525 1.04 300.333 0.103999 303.837 0.103999ZM291.669 19.832H322.557L321.405 28.976H290.229L291.669 19.832Z" fill="url(#paint0_linear_466_40)"/>
<defs>
<linearGradient id="paint0_linear_466_40" x1="162" y1="-22" x2="162" y2="64" gradientUnits="userSpaceOnUse">
<stop stop-color="#3DB9EA"/>
<stop offset="1" stop-color="#5092F3"/>
</linearGradient>
</defs>
</svg>
