<svg width="515" height="515" viewBox="0 0 515 515" fill="none" xmlns="http://www.w3.org/2000/svg">
<g filter="url(#filter0_bdiiiiii_521_5)">
<path d="M491.075 373.709L364.844 247.487L491.034 121.279C492.278 120.035 493.264 118.56 493.937 116.935C494.609 115.311 494.956 113.57 494.956 111.812C494.956 110.054 494.609 108.313 493.937 106.689C493.264 105.065 492.278 103.589 491.034 102.346L402.634 13.9219C400.122 11.4107 396.716 10 393.164 10C389.613 10 386.207 11.4107 383.695 13.9219L257.484 140.13L131.293 13.9219C126.273 8.8943 117.382 8.8943 112.355 13.9219L23.9336 102.332C21.4258 104.846 20.0174 108.252 20.0174 111.802C20.0174 115.353 21.4258 118.758 23.9336 121.272L150.145 247.487L23.9134 373.716C21.4073 376.23 20 379.636 20 383.186C20 386.736 21.4073 390.141 23.9134 392.655L112.321 481.073C113.564 482.318 115.04 483.305 116.665 483.979C118.289 484.653 120.031 485 121.79 485C123.549 485 125.291 484.653 126.916 483.979C128.541 483.305 130.017 482.318 131.26 481.073L257.484 354.844L383.715 481.066C386.333 483.677 389.745 484.99 393.185 484.99C396.624 484.99 400.043 483.677 402.661 481.066L491.082 392.648C493.592 390.136 495.001 386.729 495 383.177C494.999 379.626 493.587 376.22 491.075 373.709V373.709Z" fill="white" fill-opacity="0.01" shape-rendering="crispEdges"/>
</g>
<defs>
<filter id="filter0_bdiiiiii_521_5" x="-20" y="-30" width="555" height="555" filterUnits="userSpaceOnUse" color-interpolation-filters="sRGB">
<feFlood flood-opacity="0" result="BackgroundImageFix"/>
<feGaussianBlur in="BackgroundImage" stdDeviation="20"/>
<feComposite in2="SourceAlpha" operator="in" result="effect1_backgroundBlur_521_5"/>
<feColorMatrix in="SourceAlpha" type="matrix" values="0 0 0 0 0 0 0 0 0 0 0 0 0 0 0 0 0 0 127 0" result="hardAlpha"/>
<feOffset dy="10"/>
<feGaussianBlur stdDeviation="10"/>
<feComposite in2="hardAlpha" operator="out"/>
<feColorMatrix type="matrix" values="0 0 0 0 0 0 0 0 0 0 0 0 0 0 0 0 0 0 0.1 0"/>
<feBlend mode="normal" in2="effect1_backgroundBlur_521_5" result="effect2_dropShadow_521_5"/>
<feBlend mode="normal" in="SourceGraphic" in2="effect2_dropShadow_521_5" result="shape"/>
<feColorMatrix in="SourceAlpha" type="matrix" values="0 0 0 0 0 0 0 0 0 0 0 0 0 0 0 0 0 0 127 0" result="hardAlpha"/>
<feOffset dy="6"/>
<feGaussianBlur stdDeviation="5"/>
<feComposite in2="hardAlpha" operator="arithmetic" k2="-1" k3="1"/>
<feColorMatrix type="matrix" values="0 0 0 0 1 0 0 0 0 1 0 0 0 0 1 0 0 0 0.4 0"/>
<feBlend mode="normal" in2="shape" result="effect3_innerShadow_521_5"/>
<feColorMatrix in="SourceAlpha" type="matrix" values="0 0 0 0 0 0 0 0 0 0 0 0 0 0 0 0 0 0 127 0" result="hardAlpha"/>
<feOffset dy="2"/>
<feGaussianBlur stdDeviation="0.5"/>
<feComposite in2="hardAlpha" operator="arithmetic" k2="-1" k3="1"/>
<feColorMatrix type="matrix" values="0 0 0 0 1 0 0 0 0 1 0 0 0 0 1 0 0 0 0.8 0"/>
<feBlend mode="normal" in2="effect3_innerShadow_521_5" result="effect4_innerShadow_521_5"/>
<feColorMatrix in="SourceAlpha" type="matrix" values="0 0 0 0 0 0 0 0 0 0 0 0 0 0 0 0 0 0 127 0" result="hardAlpha"/>
<feOffset dy="40"/>
<feGaussianBlur stdDeviation="20"/>
<feComposite in2="hardAlpha" operator="arithmetic" k2="-1" k3="1"/>
<feColorMatrix type="matrix" values="0 0 0 0 1 0 0 0 0 1 0 0 0 0 1 0 0 0 0.24 0"/>
<feBlend mode="normal" in2="effect4_innerShadow_521_5" result="effect5_innerShadow_521_5"/>
<feColorMatrix in="SourceAlpha" type="matrix" values="0 0 0 0 0 0 0 0 0 0 0 0 0 0 0 0 0 0 127 0" result="hardAlpha"/>
<feOffset dy="-3"/>
<feGaussianBlur stdDeviation="3"/>
<feComposite in2="hardAlpha" operator="arithmetic" k2="-1" k3="1"/>
<feColorMatrix type="matrix" values="0 0 0 0 1 0 0 0 0 1 0 0 0 0 1 0 0 0 0.24 0"/>
<feBlend mode="normal" in2="effect5_innerShadow_521_5" result="effect6_innerShadow_521_5"/>
<feColorMatrix in="SourceAlpha" type="matrix" values="0 0 0 0 0 0 0 0 0 0 0 0 0 0 0 0 0 0 127 0" result="hardAlpha"/>
<feOffset dy="-6"/>
<feGaussianBlur stdDeviation="9"/>
<feComposite in2="hardAlpha" operator="arithmetic" k2="-1" k3="1"/>
<feColorMatrix type="matrix" values="0 0 0 0 1 0 0 0 0 1 0 0 0 0 1 0 0 0 0.24 0"/>
<feBlend mode="normal" in2="effect6_innerShadow_521_5" result="effect7_innerShadow_521_5"/>
<feColorMatrix in="SourceAlpha" type="matrix" values="0 0 0 0 0 0 0 0 0 0 0 0 0 0 0 0 0 0 127 0" result="hardAlpha"/>
<feOffset dy="-40"/>
<feGaussianBlur stdDeviation="20"/>
<feComposite in2="hardAlpha" operator="arithmetic" k2="-1" k3="1"/>
<feColorMatrix type="matrix" values="0 0 0 0 0.619608 0 0 0 0 0 0 0 0 0 0.964706 0 0 0 0.1 0"/>
<feBlend mode="normal" in2="effect7_innerShadow_521_5" result="effect8_innerShadow_521_5"/>
</filter>
</defs>
</svg>
